<mxfile host="app.diagrams.net" modified="2024-03-15T15:28:44.701Z" agent="Mozilla/5.0 (Windows NT 10.0; Win64; x64) AppleWebKit/537.36 (KHTML, like Gecko) Chrome/122.0.0.0 Safari/537.36" etag="b9UJ7bmSoatzn4-4SVjI" version="24.0.7" type="google">
  <diagram name="Page-1" id="2YBvvXClWsGukQMizWep">
    <mxGraphModel grid="1" page="1" gridSize="10" guides="1" tooltips="1" connect="1" arrows="1" fold="1" pageScale="1" pageWidth="850" pageHeight="1100" math="0" shadow="0">
      <root>
        <mxCell id="0" />
        <mxCell id="1" parent="0" />
        <mxCell id="5WNRCHRbnZIgCaqK5h5G-68" value="БД FAQ" style="shape=umlLifeline;perimeter=lifelinePerimeter;whiteSpace=wrap;html=1;container=0;dropTarget=0;collapsible=0;recursiveResize=0;outlineConnect=0;portConstraint=eastwest;newEdgeStyle={&quot;edgeStyle&quot;:&quot;elbowEdgeStyle&quot;,&quot;elbow&quot;:&quot;vertical&quot;,&quot;curved&quot;:0,&quot;rounded&quot;:0};movable=1;resizable=1;rotatable=1;deletable=1;editable=1;locked=0;connectable=1;" vertex="1" parent="1">
          <mxGeometry x="2894" y="107" width="100" height="4890" as="geometry" />
        </mxCell>
        <mxCell id="PB6z9pNrrS4ba0Ki2-iY-9" value="Сервис FAQ" style="shape=umlLifeline;perimeter=lifelinePerimeter;whiteSpace=wrap;html=1;container=0;dropTarget=0;collapsible=0;recursiveResize=0;outlineConnect=0;portConstraint=eastwest;newEdgeStyle={&quot;edgeStyle&quot;:&quot;elbowEdgeStyle&quot;,&quot;elbow&quot;:&quot;vertical&quot;,&quot;curved&quot;:0,&quot;rounded&quot;:0};movable=1;resizable=1;rotatable=1;deletable=1;editable=1;locked=0;connectable=1;" vertex="1" parent="1">
          <mxGeometry x="2640" y="107" width="100" height="4890" as="geometry" />
        </mxCell>
        <mxCell id="KeWvBjnG3KHDykmNAj6I-4" value="Сервис подписок пользователя" style="shape=umlLifeline;perimeter=lifelinePerimeter;whiteSpace=wrap;html=1;container=0;dropTarget=0;collapsible=0;recursiveResize=0;outlineConnect=0;portConstraint=eastwest;newEdgeStyle={&quot;edgeStyle&quot;:&quot;elbowEdgeStyle&quot;,&quot;elbow&quot;:&quot;vertical&quot;,&quot;curved&quot;:0,&quot;rounded&quot;:0};movable=1;resizable=1;rotatable=1;deletable=1;editable=1;locked=0;connectable=1;" vertex="1" parent="1">
          <mxGeometry x="1400" y="110" width="100" height="4890" as="geometry" />
        </mxCell>
        <mxCell id="KeWvBjnG3KHDykmNAj6I-1" value="" style="html=1;points=[];perimeter=orthogonalPerimeter;outlineConnect=0;targetShapes=umlLifeline;portConstraint=eastwest;newEdgeStyle={&quot;edgeStyle&quot;:&quot;elbowEdgeStyle&quot;,&quot;elbow&quot;:&quot;vertical&quot;,&quot;curved&quot;:0,&quot;rounded&quot;:0};" vertex="1" parent="KeWvBjnG3KHDykmNAj6I-4">
          <mxGeometry x="45" y="1920" width="10" height="110" as="geometry" />
        </mxCell>
        <mxCell id="cLqWGaLSRkpbiKMD2nUf-7" value="" style="html=1;points=[];perimeter=orthogonalPerimeter;outlineConnect=0;targetShapes=umlLifeline;portConstraint=eastwest;newEdgeStyle={&quot;edgeStyle&quot;:&quot;elbowEdgeStyle&quot;,&quot;elbow&quot;:&quot;vertical&quot;,&quot;curved&quot;:0,&quot;rounded&quot;:0};" vertex="1" parent="KeWvBjnG3KHDykmNAj6I-4">
          <mxGeometry x="1539" y="4219" width="10" height="60" as="geometry" />
        </mxCell>
        <mxCell id="cLqWGaLSRkpbiKMD2nUf-8" value="Перейти на главный экран с доступными подписками" style="html=1;verticalAlign=bottom;endArrow=block;curved=0;rounded=0;" edge="1" parent="KeWvBjnG3KHDykmNAj6I-4" target="cLqWGaLSRkpbiKMD2nUf-12">
          <mxGeometry x="-0.0009" width="80" relative="1" as="geometry">
            <mxPoint x="-1540" y="4194" as="sourcePoint" />
            <mxPoint x="495" y="4194" as="targetPoint" />
            <mxPoint as="offset" />
          </mxGeometry>
        </mxCell>
        <mxCell id="cLqWGaLSRkpbiKMD2nUf-9" value="Обновленный главный экран" style="html=1;verticalAlign=bottom;endArrow=open;dashed=1;endSize=8;curved=0;rounded=0;" edge="1" parent="KeWvBjnG3KHDykmNAj6I-4">
          <mxGeometry x="-0.0002" relative="1" as="geometry">
            <mxPoint x="1285" y="4309" as="sourcePoint" />
            <mxPoint x="-1540" y="4309" as="targetPoint" />
            <mxPoint as="offset" />
          </mxGeometry>
        </mxCell>
        <mxCell id="cLqWGaLSRkpbiKMD2nUf-10" value="Запрос последней информации о&amp;nbsp;&lt;br&gt;главном экране" style="html=1;verticalAlign=bottom;endArrow=block;curved=0;rounded=0;" edge="1" parent="KeWvBjnG3KHDykmNAj6I-4" target="cLqWGaLSRkpbiKMD2nUf-7">
          <mxGeometry x="-0.0016" width="80" relative="1" as="geometry">
            <mxPoint x="1295" y="4219" as="sourcePoint" />
            <mxPoint x="1540" y="4219" as="targetPoint" />
            <mxPoint as="offset" />
          </mxGeometry>
        </mxCell>
        <mxCell id="cLqWGaLSRkpbiKMD2nUf-11" value="Обновленный главный экран" style="html=1;verticalAlign=bottom;endArrow=open;dashed=1;endSize=8;curved=0;rounded=0;" edge="1" parent="KeWvBjnG3KHDykmNAj6I-4" source="cLqWGaLSRkpbiKMD2nUf-7">
          <mxGeometry relative="1" as="geometry">
            <mxPoint x="1540" y="4279" as="sourcePoint" />
            <mxPoint x="1295" y="4279" as="targetPoint" />
            <mxPoint as="offset" />
          </mxGeometry>
        </mxCell>
        <mxCell id="cLqWGaLSRkpbiKMD2nUf-12" value="" style="html=1;points=[];perimeter=orthogonalPerimeter;outlineConnect=0;targetShapes=umlLifeline;portConstraint=eastwest;newEdgeStyle={&quot;edgeStyle&quot;:&quot;elbowEdgeStyle&quot;,&quot;elbow&quot;:&quot;vertical&quot;,&quot;curved&quot;:0,&quot;rounded&quot;:0};" vertex="1" parent="KeWvBjnG3KHDykmNAj6I-4">
          <mxGeometry x="1285" y="4194" width="10" height="116" as="geometry" />
        </mxCell>
        <mxCell id="KeWvBjnG3KHDykmNAj6I-8" value="БД подписок пользователя" style="shape=umlLifeline;perimeter=lifelinePerimeter;whiteSpace=wrap;html=1;container=0;dropTarget=0;collapsible=0;recursiveResize=0;outlineConnect=0;portConstraint=eastwest;newEdgeStyle={&quot;edgeStyle&quot;:&quot;elbowEdgeStyle&quot;,&quot;elbow&quot;:&quot;vertical&quot;,&quot;curved&quot;:0,&quot;rounded&quot;:0};movable=1;resizable=1;rotatable=1;deletable=1;editable=1;locked=0;connectable=1;" vertex="1" parent="1">
          <mxGeometry x="1620" y="110" width="100" height="4890" as="geometry" />
        </mxCell>
        <mxCell id="JDW7fGdjqn5SQFJFb9Jk-43" value="" style="html=1;points=[];perimeter=orthogonalPerimeter;outlineConnect=0;targetShapes=umlLifeline;portConstraint=eastwest;newEdgeStyle={&quot;edgeStyle&quot;:&quot;elbowEdgeStyle&quot;,&quot;elbow&quot;:&quot;vertical&quot;,&quot;curved&quot;:0,&quot;rounded&quot;:0};" vertex="1" parent="KeWvBjnG3KHDykmNAj6I-8">
          <mxGeometry x="45" y="1954.6999999999998" width="10" height="40" as="geometry" />
        </mxCell>
        <mxCell id="JDW7fGdjqn5SQFJFb9Jk-44" value="Запрос списка подписок&lt;br&gt;&amp;nbsp;пользователя" style="html=1;verticalAlign=bottom;endArrow=block;curved=0;rounded=0;" edge="1" parent="KeWvBjnG3KHDykmNAj6I-8" source="KeWvBjnG3KHDykmNAj6I-1">
          <mxGeometry width="80" relative="1" as="geometry">
            <mxPoint x="-170" y="1954.6999999999998" as="sourcePoint" />
            <mxPoint x="45" y="1954.6999999999998" as="targetPoint" />
          </mxGeometry>
        </mxCell>
        <mxCell id="JDW7fGdjqn5SQFJFb9Jk-45" value="Список подписок пользователя" style="html=1;verticalAlign=bottom;endArrow=open;dashed=1;endSize=8;curved=0;rounded=0;" edge="1" parent="KeWvBjnG3KHDykmNAj6I-8" target="KeWvBjnG3KHDykmNAj6I-1">
          <mxGeometry x="0.0047" relative="1" as="geometry">
            <mxPoint x="46" y="1994.6999999999998" as="sourcePoint" />
            <mxPoint x="-169" y="1995.1999999999998" as="targetPoint" />
            <mxPoint as="offset" />
          </mxGeometry>
        </mxCell>
        <mxCell id="rFldnTflBnJy9byAghej-87" value="" style="group" connectable="0" vertex="1" parent="1">
          <mxGeometry x="-320" y="1627" width="1690" height="100" as="geometry" />
        </mxCell>
        <mxCell id="rFldnTflBnJy9byAghej-88" value="opt" style="shape=umlFrame;whiteSpace=wrap;html=1;pointerEvents=0;" vertex="1" parent="rFldnTflBnJy9byAghej-87">
          <mxGeometry width="1689.9999999999998" height="90" as="geometry" />
        </mxCell>
        <mxCell id="rFldnTflBnJy9byAghej-89" value="&lt;span style=&quot;text-align: center;&quot;&gt;[пользователь вошел&lt;/span&gt;&lt;br style=&quot;text-align: center;&quot;&gt;&lt;span style=&quot;text-align: center;&quot;&gt;&amp;nbsp;на экран&lt;br&gt;&amp;nbsp;оформления&lt;/span&gt;&lt;span style=&quot;text-align: center;&quot;&gt;]&lt;/span&gt;" style="text;whiteSpace=wrap;html=1;" vertex="1" parent="rFldnTflBnJy9byAghej-87">
          <mxGeometry x="40" y="30" width="130" height="70" as="geometry" />
        </mxCell>
        <mxCell id="rFldnTflBnJy9byAghej-83" value="" style="group" connectable="0" vertex="1" parent="1">
          <mxGeometry x="-320" y="1537" width="1690" height="100" as="geometry" />
        </mxCell>
        <mxCell id="rFldnTflBnJy9byAghej-84" value="opt" style="shape=umlFrame;whiteSpace=wrap;html=1;pointerEvents=0;" vertex="1" parent="rFldnTflBnJy9byAghej-83">
          <mxGeometry width="1689.9999999999998" height="90" as="geometry" />
        </mxCell>
        <mxCell id="rFldnTflBnJy9byAghej-85" value="&lt;span style=&quot;color: rgb(0, 0, 0); font-family: Helvetica; font-size: 12px; font-style: normal; font-variant-ligatures: normal; font-variant-caps: normal; font-weight: 400; letter-spacing: normal; orphans: 2; text-align: center; text-indent: 0px; text-transform: none; widows: 2; word-spacing: 0px; -webkit-text-stroke-width: 0px; white-space: normal; background-color: rgb(251, 251, 251); text-decoration-thickness: initial; text-decoration-style: initial; text-decoration-color: initial; display: inline !important; float: none;&quot;&gt;[пользователь вошел&lt;/span&gt;&lt;br style=&quot;color: rgb(0, 0, 0); font-family: Helvetica; font-size: 12px; font-style: normal; font-variant-ligatures: normal; font-variant-caps: normal; font-weight: 400; letter-spacing: normal; orphans: 2; text-align: center; text-indent: 0px; text-transform: none; widows: 2; word-spacing: 0px; -webkit-text-stroke-width: 0px; white-space: normal; background-color: rgb(251, 251, 251); text-decoration-thickness: initial; text-decoration-style: initial; text-decoration-color: initial;&quot;&gt;&lt;span style=&quot;color: rgb(0, 0, 0); font-family: Helvetica; font-size: 12px; font-style: normal; font-variant-ligatures: normal; font-variant-caps: normal; font-weight: 400; letter-spacing: normal; orphans: 2; text-align: center; text-indent: 0px; text-transform: none; widows: 2; word-spacing: 0px; -webkit-text-stroke-width: 0px; white-space: normal; background-color: rgb(251, 251, 251); text-decoration-thickness: initial; text-decoration-style: initial; text-decoration-color: initial; display: inline !important; float: none;&quot;&gt;&amp;nbsp;на экран&lt;br&gt;&amp;nbsp;оформления&lt;/span&gt;&lt;span style=&quot;color: rgb(0, 0, 0); font-family: Helvetica; font-size: 12px; font-style: normal; font-variant-ligatures: normal; font-variant-caps: normal; font-weight: 400; letter-spacing: normal; orphans: 2; text-align: center; text-indent: 0px; text-transform: none; widows: 2; word-spacing: 0px; -webkit-text-stroke-width: 0px; white-space: normal; background-color: rgb(251, 251, 251); text-decoration-thickness: initial; text-decoration-style: initial; text-decoration-color: initial; display: inline !important; float: none;&quot;&gt;]&lt;/span&gt;" style="text;whiteSpace=wrap;html=1;" vertex="1" parent="rFldnTflBnJy9byAghej-83">
          <mxGeometry x="40" y="30" width="130" height="70" as="geometry" />
        </mxCell>
        <mxCell id="rFldnTflBnJy9byAghej-29" value="" style="group" connectable="0" vertex="1" parent="1">
          <mxGeometry x="-320" y="570" width="1320" height="100" as="geometry" />
        </mxCell>
        <mxCell id="rFldnTflBnJy9byAghej-30" value="opt" style="shape=umlFrame;whiteSpace=wrap;html=1;pointerEvents=0;" vertex="1" parent="rFldnTflBnJy9byAghej-29">
          <mxGeometry width="1320" height="90" as="geometry" />
        </mxCell>
        <mxCell id="rFldnTflBnJy9byAghej-50" value="&lt;span style=&quot;color: rgb(0, 0, 0); font-family: Helvetica; font-size: 12px; font-style: normal; font-variant-ligatures: normal; font-variant-caps: normal; font-weight: 400; letter-spacing: normal; orphans: 2; text-align: center; text-indent: 0px; text-transform: none; widows: 2; word-spacing: 0px; -webkit-text-stroke-width: 0px; white-space: normal; background-color: rgb(251, 251, 251); text-decoration-thickness: initial; text-decoration-style: initial; text-decoration-color: initial; display: inline !important; float: none;&quot;&gt;[пользователь вошел&lt;/span&gt;&lt;br style=&quot;color: rgb(0, 0, 0); font-family: Helvetica; font-size: 12px; font-style: normal; font-variant-ligatures: normal; font-variant-caps: normal; font-weight: 400; letter-spacing: normal; orphans: 2; text-align: center; text-indent: 0px; text-transform: none; widows: 2; word-spacing: 0px; -webkit-text-stroke-width: 0px; white-space: normal; background-color: rgb(251, 251, 251); text-decoration-thickness: initial; text-decoration-style: initial; text-decoration-color: initial;&quot;&gt;&lt;span style=&quot;color: rgb(0, 0, 0); font-family: Helvetica; font-size: 12px; font-style: normal; font-variant-ligatures: normal; font-variant-caps: normal; font-weight: 400; letter-spacing: normal; orphans: 2; text-align: center; text-indent: 0px; text-transform: none; widows: 2; word-spacing: 0px; -webkit-text-stroke-width: 0px; white-space: normal; background-color: rgb(251, 251, 251); text-decoration-thickness: initial; text-decoration-style: initial; text-decoration-color: initial; display: inline !important; float: none;&quot;&gt;&amp;nbsp;на вкладку&lt;/span&gt;&lt;br style=&quot;color: rgb(0, 0, 0); font-family: Helvetica; font-size: 12px; font-style: normal; font-variant-ligatures: normal; font-variant-caps: normal; font-weight: 400; letter-spacing: normal; orphans: 2; text-align: center; text-indent: 0px; text-transform: none; widows: 2; word-spacing: 0px; -webkit-text-stroke-width: 0px; white-space: normal; background-color: rgb(251, 251, 251); text-decoration-thickness: initial; text-decoration-style: initial; text-decoration-color: initial;&quot;&gt;&lt;span style=&quot;color: rgb(0, 0, 0); font-family: Helvetica; font-size: 12px; font-style: normal; font-variant-ligatures: normal; font-variant-caps: normal; font-weight: 400; letter-spacing: normal; orphans: 2; text-align: center; text-indent: 0px; text-transform: none; widows: 2; word-spacing: 0px; -webkit-text-stroke-width: 0px; white-space: normal; background-color: rgb(251, 251, 251); text-decoration-thickness: initial; text-decoration-style: initial; text-decoration-color: initial; display: inline !important; float: none;&quot;&gt;&amp;nbsp;сервиса впервые]&lt;/span&gt;" style="text;whiteSpace=wrap;html=1;" vertex="1" parent="rFldnTflBnJy9byAghej-29">
          <mxGeometry x="38.70676691729323" y="30" width="148.8721804511278" height="70" as="geometry" />
        </mxCell>
        <mxCell id="rFldnTflBnJy9byAghej-51" value="Гайд по работе с сервисом" style="html=1;verticalAlign=bottom;endArrow=open;dashed=1;endSize=8;curved=0;rounded=0;" edge="1" parent="rFldnTflBnJy9byAghej-29">
          <mxGeometry relative="1" as="geometry">
            <mxPoint x="1280" y="59.999999999999545" as="sourcePoint" />
            <mxPoint x="178.64661654135338" y="59.999999999999545" as="targetPoint" />
            <mxPoint as="offset" />
          </mxGeometry>
        </mxCell>
        <mxCell id="rFldnTflBnJy9byAghej-72" value="" style="group" connectable="0" vertex="1" parent="1">
          <mxGeometry x="-320" y="1366" width="1690" height="170" as="geometry" />
        </mxCell>
        <mxCell id="rFldnTflBnJy9byAghej-73" value="alt" style="shape=umlFrame;whiteSpace=wrap;html=1;pointerEvents=0;" vertex="1" parent="rFldnTflBnJy9byAghej-72">
          <mxGeometry width="1689.9999999999998" height="170" as="geometry" />
        </mxCell>
        <mxCell id="rFldnTflBnJy9byAghej-74" value="" style="endArrow=none;html=1;rounded=0;exitX=0;exitY=0.499;exitDx=0;exitDy=0;exitPerimeter=0;" edge="1" parent="rFldnTflBnJy9byAghej-72" source="rFldnTflBnJy9byAghej-73">
          <mxGeometry width="50" height="50" relative="1" as="geometry">
            <mxPoint x="728.0000000000001" y="95" as="sourcePoint" />
            <mxPoint x="1689.9999999999998" y="85" as="targetPoint" />
          </mxGeometry>
        </mxCell>
        <mxCell id="rFldnTflBnJy9byAghej-75" value="[иначе]" style="text;html=1;align=center;verticalAlign=middle;whiteSpace=wrap;rounded=0;" vertex="1" parent="rFldnTflBnJy9byAghej-72">
          <mxGeometry y="112" width="170" height="30" as="geometry" />
        </mxCell>
        <mxCell id="rFldnTflBnJy9byAghej-76" value="[оплата подписки успешна]" style="text;html=1;align=center;verticalAlign=middle;whiteSpace=wrap;rounded=0;" vertex="1" parent="rFldnTflBnJy9byAghej-72">
          <mxGeometry y="36" width="170" height="30" as="geometry" />
        </mxCell>
        <mxCell id="5WNRCHRbnZIgCaqK5h5G-43" value="" style="endArrow=none;dashed=1;html=1;rounded=0;jumpStyle=none;movable=0;resizable=0;rotatable=0;deletable=0;editable=0;locked=1;connectable=0;" edge="1" parent="1">
          <mxGeometry width="50" height="50" relative="1" as="geometry">
            <mxPoint x="-145" y="5000" as="sourcePoint" />
            <mxPoint x="-145" y="170" as="targetPoint" />
          </mxGeometry>
        </mxCell>
        <mxCell id="PB6z9pNrrS4ba0Ki2-iY-1" value="Пользователь&amp;nbsp;&lt;br&gt;приложения" style="shape=umlActor;verticalLabelPosition=bottom;verticalAlign=top;html=1;" vertex="1" parent="1">
          <mxGeometry x="-161" y="75" width="30" height="60" as="geometry" />
        </mxCell>
        <mxCell id="PB6z9pNrrS4ba0Ki2-iY-11" value="Приложение банка" style="shape=umlLifeline;perimeter=lifelinePerimeter;whiteSpace=wrap;html=1;container=0;dropTarget=0;collapsible=0;recursiveResize=0;outlineConnect=0;portConstraint=eastwest;newEdgeStyle={&quot;edgeStyle&quot;:&quot;elbowEdgeStyle&quot;,&quot;elbow&quot;:&quot;vertical&quot;,&quot;curved&quot;:0,&quot;rounded&quot;:0};movable=1;resizable=1;rotatable=1;deletable=1;editable=1;locked=0;connectable=1;" vertex="1" parent="1">
          <mxGeometry x="470" y="110" width="100" height="4890" as="geometry" />
        </mxCell>
        <mxCell id="PB6z9pNrrS4ba0Ki2-iY-13" value="Сервис доступных подписок" style="shape=umlLifeline;perimeter=lifelinePerimeter;whiteSpace=wrap;html=1;container=0;dropTarget=0;collapsible=0;recursiveResize=0;outlineConnect=0;portConstraint=eastwest;newEdgeStyle={&quot;edgeStyle&quot;:&quot;elbowEdgeStyle&quot;,&quot;elbow&quot;:&quot;vertical&quot;,&quot;curved&quot;:0,&quot;rounded&quot;:0};movable=1;resizable=1;rotatable=1;deletable=1;editable=1;locked=0;connectable=1;" vertex="1" parent="1">
          <mxGeometry x="910" y="110" width="110" height="4890" as="geometry" />
        </mxCell>
        <mxCell id="5WNRCHRbnZIgCaqK5h5G-11" value="" style="endArrow=none;dashed=1;html=1;rounded=0;jumpStyle=none;" edge="1" parent="1" source="5WNRCHRbnZIgCaqK5h5G-8">
          <mxGeometry width="50" height="50" relative="1" as="geometry">
            <mxPoint x="-145" y="1160" as="sourcePoint" />
            <mxPoint x="-145" y="840" as="targetPoint" />
          </mxGeometry>
        </mxCell>
        <mxCell id="5WNRCHRbnZIgCaqK5h5G-17" value="" style="group" connectable="0" vertex="1" parent="1">
          <mxGeometry x="-320" y="265" width="1120" height="170" as="geometry" />
        </mxCell>
        <mxCell id="5WNRCHRbnZIgCaqK5h5G-15" value="alt" style="shape=umlFrame;whiteSpace=wrap;html=1;pointerEvents=0;" vertex="1" parent="5WNRCHRbnZIgCaqK5h5G-17">
          <mxGeometry width="1120" height="170" as="geometry" />
        </mxCell>
        <mxCell id="5WNRCHRbnZIgCaqK5h5G-16" value="" style="endArrow=none;html=1;rounded=0;exitX=0;exitY=0.499;exitDx=0;exitDy=0;exitPerimeter=0;" edge="1" parent="5WNRCHRbnZIgCaqK5h5G-17" source="5WNRCHRbnZIgCaqK5h5G-15">
          <mxGeometry width="50" height="50" relative="1" as="geometry">
            <mxPoint x="482.4615384615385" y="95" as="sourcePoint" />
            <mxPoint x="1120" y="85" as="targetPoint" />
          </mxGeometry>
        </mxCell>
        <mxCell id="5WNRCHRbnZIgCaqK5h5G-20" value="[иначе]" style="text;html=1;align=center;verticalAlign=middle;whiteSpace=wrap;rounded=0;" vertex="1" parent="5WNRCHRbnZIgCaqK5h5G-17">
          <mxGeometry x="35.38461538461539" y="115" width="103.38461538461539" height="30" as="geometry" />
        </mxCell>
        <mxCell id="5WNRCHRbnZIgCaqK5h5G-19" value="[пользователь авторизован]" style="text;html=1;align=center;verticalAlign=middle;whiteSpace=wrap;rounded=0;" vertex="1" parent="5WNRCHRbnZIgCaqK5h5G-17">
          <mxGeometry x="40.38461538461539" y="45" width="103.38461538461539" height="30" as="geometry" />
        </mxCell>
        <mxCell id="5WNRCHRbnZIgCaqK5h5G-24" value="Авторизация&amp;nbsp;&lt;br&gt;не пройдена" style="html=1;verticalAlign=bottom;endArrow=open;dashed=1;endSize=8;curved=0;rounded=0;" edge="1" parent="5WNRCHRbnZIgCaqK5h5G-17" source="5WNRCHRbnZIgCaqK5h5G-6">
          <mxGeometry x="0.0006" relative="1" as="geometry">
            <mxPoint x="654.7692307692308" y="145" as="sourcePoint" />
            <mxPoint x="180" y="145" as="targetPoint" />
            <mxPoint as="offset" />
          </mxGeometry>
        </mxCell>
        <mxCell id="5WNRCHRbnZIgCaqK5h5G-25" value="Авторизация&amp;nbsp;&lt;br&gt;пройдена" style="html=1;verticalAlign=bottom;endArrow=open;dashed=1;endSize=8;curved=0;rounded=0;" edge="1" parent="5WNRCHRbnZIgCaqK5h5G-17" source="5WNRCHRbnZIgCaqK5h5G-6">
          <mxGeometry x="0.0006" relative="1" as="geometry">
            <mxPoint x="654.7692307692308" y="60" as="sourcePoint" />
            <mxPoint x="180" y="60" as="targetPoint" />
            <mxPoint as="offset" />
          </mxGeometry>
        </mxCell>
        <mxCell id="HmurkkKORCNAhQxO-uoe-1" value="Пользователь" style="html=1;verticalAlign=bottom;endArrow=open;dashed=1;endSize=8;curved=0;rounded=0;" edge="1" parent="5WNRCHRbnZIgCaqK5h5G-17">
          <mxGeometry relative="1" as="geometry">
            <mxPoint x="1045" y="34.999999999999986" as="sourcePoint" />
            <mxPoint x="845" y="34.999999999999986" as="targetPoint" />
          </mxGeometry>
        </mxCell>
        <mxCell id="5WNRCHRbnZIgCaqK5h5G-8" value="" style="html=1;points=[];perimeter=orthogonalPerimeter;outlineConnect=0;targetShapes=umlLifeline;portConstraint=eastwest;newEdgeStyle={&quot;edgeStyle&quot;:&quot;elbowEdgeStyle&quot;,&quot;elbow&quot;:&quot;vertical&quot;,&quot;curved&quot;:0,&quot;rounded&quot;:0};" vertex="1" parent="1">
          <mxGeometry x="-150" y="200" width="10" height="4220" as="geometry" />
        </mxCell>
        <mxCell id="5WNRCHRbnZIgCaqK5h5G-22" value="Пользователь" style="html=1;verticalAlign=bottom;endArrow=open;dashed=1;endSize=8;curved=0;rounded=0;" edge="1" parent="1" target="5WNRCHRbnZIgCaqK5h5G-6">
          <mxGeometry relative="1" as="geometry">
            <mxPoint x="725" y="390" as="sourcePoint" />
            <mxPoint x="535" y="390" as="targetPoint" />
          </mxGeometry>
        </mxCell>
        <mxCell id="5WNRCHRbnZIgCaqK5h5G-52" value="БД&amp;nbsp;&lt;br&gt;приложения банка" style="shape=umlLifeline;perimeter=lifelinePerimeter;whiteSpace=wrap;html=1;container=0;dropTarget=0;collapsible=0;recursiveResize=0;outlineConnect=0;portConstraint=eastwest;newEdgeStyle={&quot;edgeStyle&quot;:&quot;elbowEdgeStyle&quot;,&quot;elbow&quot;:&quot;vertical&quot;,&quot;curved&quot;:0,&quot;rounded&quot;:0};movable=1;resizable=1;rotatable=1;deletable=1;editable=1;locked=0;connectable=1;" vertex="1" parent="1">
          <mxGeometry x="680" y="110" width="100" height="4900" as="geometry" />
        </mxCell>
        <mxCell id="5WNRCHRbnZIgCaqK5h5G-64" value="БД сервиса подписок" style="shape=umlLifeline;perimeter=lifelinePerimeter;whiteSpace=wrap;html=1;container=0;dropTarget=0;collapsible=0;recursiveResize=0;outlineConnect=0;portConstraint=eastwest;newEdgeStyle={&quot;edgeStyle&quot;:&quot;elbowEdgeStyle&quot;,&quot;elbow&quot;:&quot;vertical&quot;,&quot;curved&quot;:0,&quot;rounded&quot;:0};movable=1;resizable=1;rotatable=1;deletable=1;editable=1;locked=0;connectable=1;" vertex="1" parent="1">
          <mxGeometry x="1140" y="110" width="100" height="4890" as="geometry" />
        </mxCell>
        <mxCell id="JDW7fGdjqn5SQFJFb9Jk-33" value="Поиск подходящей доступной&lt;br&gt;подписки" style="html=1;verticalAlign=bottom;endArrow=block;curved=0;rounded=0;" edge="1" parent="5WNRCHRbnZIgCaqK5h5G-64">
          <mxGeometry x="-0.0016" width="80" relative="1" as="geometry">
            <mxPoint x="-170" y="930" as="sourcePoint" />
            <mxPoint x="45" y="930" as="targetPoint" />
            <mxPoint as="offset" />
          </mxGeometry>
        </mxCell>
        <mxCell id="JDW7fGdjqn5SQFJFb9Jk-34" value="Список сервисов по категории" style="html=1;verticalAlign=bottom;endArrow=open;dashed=1;endSize=8;curved=0;rounded=0;" edge="1" parent="5WNRCHRbnZIgCaqK5h5G-64">
          <mxGeometry x="-0.0041" relative="1" as="geometry">
            <mxPoint x="45" y="990" as="sourcePoint" />
            <mxPoint x="-170" y="990" as="targetPoint" />
            <mxPoint as="offset" />
          </mxGeometry>
        </mxCell>
        <mxCell id="JDW7fGdjqn5SQFJFb9Jk-35" value="" style="html=1;points=[];perimeter=orthogonalPerimeter;outlineConnect=0;targetShapes=umlLifeline;portConstraint=eastwest;newEdgeStyle={&quot;edgeStyle&quot;:&quot;elbowEdgeStyle&quot;,&quot;elbow&quot;:&quot;vertical&quot;,&quot;curved&quot;:0,&quot;rounded&quot;:0};" vertex="1" parent="5WNRCHRbnZIgCaqK5h5G-64">
          <mxGeometry x="45" y="930" width="10" height="60" as="geometry" />
        </mxCell>
        <mxCell id="NpspN3ju-j2PqQsizrWQ-13" value="БД истории платежей" style="shape=umlLifeline;perimeter=lifelinePerimeter;whiteSpace=wrap;html=1;container=0;dropTarget=0;collapsible=0;recursiveResize=0;outlineConnect=0;portConstraint=eastwest;newEdgeStyle={&quot;edgeStyle&quot;:&quot;elbowEdgeStyle&quot;,&quot;elbow&quot;:&quot;vertical&quot;,&quot;curved&quot;:0,&quot;rounded&quot;:0};movable=1;resizable=1;rotatable=1;deletable=1;editable=1;locked=0;connectable=1;" vertex="1" parent="1">
          <mxGeometry x="2380" y="109" width="100" height="4890" as="geometry" />
        </mxCell>
        <mxCell id="KeWvBjnG3KHDykmNAj6I-55" value="" style="html=1;points=[];perimeter=orthogonalPerimeter;outlineConnect=0;targetShapes=umlLifeline;portConstraint=eastwest;newEdgeStyle={&quot;edgeStyle&quot;:&quot;elbowEdgeStyle&quot;,&quot;elbow&quot;:&quot;vertical&quot;,&quot;curved&quot;:0,&quot;rounded&quot;:0};movable=1;resizable=1;rotatable=1;deletable=1;editable=1;locked=0;connectable=1;" vertex="1" parent="NpspN3ju-j2PqQsizrWQ-13">
          <mxGeometry x="45" y="2850" width="10" height="40" as="geometry" />
        </mxCell>
        <mxCell id="KeWvBjnG3KHDykmNAj6I-61" value="" style="html=1;points=[];perimeter=orthogonalPerimeter;outlineConnect=0;targetShapes=umlLifeline;portConstraint=eastwest;newEdgeStyle={&quot;edgeStyle&quot;:&quot;elbowEdgeStyle&quot;,&quot;elbow&quot;:&quot;vertical&quot;,&quot;curved&quot;:0,&quot;rounded&quot;:0};movable=1;resizable=1;rotatable=1;deletable=1;editable=1;locked=0;connectable=1;" vertex="1" parent="NpspN3ju-j2PqQsizrWQ-13">
          <mxGeometry x="45" y="2980" width="10" height="40" as="geometry" />
        </mxCell>
        <mxCell id="KeWvBjnG3KHDykmNAj6I-67" value="" style="html=1;points=[];perimeter=orthogonalPerimeter;outlineConnect=0;targetShapes=umlLifeline;portConstraint=eastwest;newEdgeStyle={&quot;edgeStyle&quot;:&quot;elbowEdgeStyle&quot;,&quot;elbow&quot;:&quot;vertical&quot;,&quot;curved&quot;:0,&quot;rounded&quot;:0};movable=1;resizable=1;rotatable=1;deletable=1;editable=1;locked=0;connectable=1;" vertex="1" parent="NpspN3ju-j2PqQsizrWQ-13">
          <mxGeometry x="45" y="3110" width="10" height="40" as="geometry" />
        </mxCell>
        <mxCell id="cLqWGaLSRkpbiKMD2nUf-13" value="" style="html=1;points=[];perimeter=orthogonalPerimeter;outlineConnect=0;targetShapes=umlLifeline;portConstraint=eastwest;newEdgeStyle={&quot;edgeStyle&quot;:&quot;elbowEdgeStyle&quot;,&quot;elbow&quot;:&quot;vertical&quot;,&quot;curved&quot;:0,&quot;rounded&quot;:0};" vertex="1" parent="NpspN3ju-j2PqQsizrWQ-13">
          <mxGeometry x="45" y="3251" width="10" height="60" as="geometry" />
        </mxCell>
        <mxCell id="cLqWGaLSRkpbiKMD2nUf-5" value="" style="html=1;points=[];perimeter=orthogonalPerimeter;outlineConnect=0;targetShapes=umlLifeline;portConstraint=eastwest;newEdgeStyle={&quot;edgeStyle&quot;:&quot;elbowEdgeStyle&quot;,&quot;elbow&quot;:&quot;vertical&quot;,&quot;curved&quot;:0,&quot;rounded&quot;:0};" vertex="1" parent="NpspN3ju-j2PqQsizrWQ-13">
          <mxGeometry x="45" y="3455" width="10" height="60" as="geometry" />
        </mxCell>
        <mxCell id="NpspN3ju-j2PqQsizrWQ-15" value="Сервис календаря платежей" style="shape=umlLifeline;perimeter=lifelinePerimeter;whiteSpace=wrap;html=1;container=0;dropTarget=0;collapsible=0;recursiveResize=0;outlineConnect=0;portConstraint=eastwest;newEdgeStyle={&quot;edgeStyle&quot;:&quot;elbowEdgeStyle&quot;,&quot;elbow&quot;:&quot;vertical&quot;,&quot;curved&quot;:0,&quot;rounded&quot;:0};movable=1;resizable=1;rotatable=1;deletable=1;editable=1;locked=0;connectable=1;" vertex="1" parent="1">
          <mxGeometry x="1850" y="110" width="110" height="4890" as="geometry" />
        </mxCell>
        <mxCell id="5WNRCHRbnZIgCaqK5h5G-7" value="Авторизация&lt;br&gt;(логин, пароль)" style="html=1;verticalAlign=bottom;startArrow=none;endArrow=block;startSize=8;edgeStyle=elbowEdgeStyle;elbow=vertical;curved=0;rounded=0;startFill=0;" edge="1" parent="1">
          <mxGeometry relative="1" as="geometry">
            <mxPoint x="-140" y="199.83333333333337" as="sourcePoint" />
            <mxPoint x="515" y="199.83333333333337" as="targetPoint" />
          </mxGeometry>
        </mxCell>
        <mxCell id="5WNRCHRbnZIgCaqK5h5G-13" value="" style="html=1;points=[];perimeter=orthogonalPerimeter;outlineConnect=0;targetShapes=umlLifeline;portConstraint=eastwest;newEdgeStyle={&quot;edgeStyle&quot;:&quot;elbowEdgeStyle&quot;,&quot;elbow&quot;:&quot;vertical&quot;,&quot;curved&quot;:0,&quot;rounded&quot;:0};" vertex="1" parent="1">
          <mxGeometry x="725" y="230" width="10" height="160" as="geometry" />
        </mxCell>
        <mxCell id="5WNRCHRbnZIgCaqK5h5G-14" value="Поиск логина и пароля&lt;br&gt;&amp;nbsp;пользователя" style="html=1;verticalAlign=bottom;startArrow=none;endArrow=block;startSize=8;edgeStyle=elbowEdgeStyle;elbow=vertical;curved=0;rounded=0;startFill=0;" edge="1" parent="1">
          <mxGeometry x="-0.0045" relative="1" as="geometry">
            <mxPoint x="525" y="230" as="sourcePoint" />
            <mxPoint x="725" y="229.86567164179104" as="targetPoint" />
            <mxPoint as="offset" />
          </mxGeometry>
        </mxCell>
        <mxCell id="5WNRCHRbnZIgCaqK5h5G-6" value="" style="html=1;points=[];perimeter=orthogonalPerimeter;outlineConnect=0;targetShapes=umlLifeline;portConstraint=eastwest;newEdgeStyle={&quot;edgeStyle&quot;:&quot;elbowEdgeStyle&quot;,&quot;elbow&quot;:&quot;vertical&quot;,&quot;curved&quot;:0,&quot;rounded&quot;:0};" vertex="1" parent="1">
          <mxGeometry x="515" y="200" width="10" height="210" as="geometry" />
        </mxCell>
        <mxCell id="rFldnTflBnJy9byAghej-23" value="" style="html=1;points=[];perimeter=orthogonalPerimeter;outlineConnect=0;targetShapes=umlLifeline;portConstraint=eastwest;newEdgeStyle={&quot;edgeStyle&quot;:&quot;elbowEdgeStyle&quot;,&quot;elbow&quot;:&quot;vertical&quot;,&quot;curved&quot;:0,&quot;rounded&quot;:0};" vertex="1" parent="1">
          <mxGeometry x="960" y="470" width="10" height="160" as="geometry" />
        </mxCell>
        <mxCell id="rFldnTflBnJy9byAghej-25" value="Перейти на главный экран" style="html=1;verticalAlign=bottom;endArrow=block;curved=0;rounded=0;" edge="1" parent="1" target="rFldnTflBnJy9byAghej-23">
          <mxGeometry x="-0.001" width="80" relative="1" as="geometry">
            <mxPoint x="-140" y="470" as="sourcePoint" />
            <mxPoint x="965" y="470" as="targetPoint" />
            <mxPoint as="offset" />
          </mxGeometry>
        </mxCell>
        <mxCell id="rFldnTflBnJy9byAghej-27" value="Главный экран подписок" style="html=1;verticalAlign=bottom;endArrow=open;dashed=1;endSize=8;curved=0;rounded=0;" edge="1" parent="1">
          <mxGeometry relative="1" as="geometry">
            <mxPoint x="960" y="544" as="sourcePoint" />
            <mxPoint x="-140" y="543.4999999999995" as="targetPoint" />
            <mxPoint as="offset" />
          </mxGeometry>
        </mxCell>
        <mxCell id="rFldnTflBnJy9byAghej-53" value="Перейти на главный экран с доступными подписками" style="html=1;verticalAlign=bottom;endArrow=block;curved=0;rounded=0;" edge="1" parent="1" target="rFldnTflBnJy9byAghej-52">
          <mxGeometry x="-0.0009" width="80" relative="1" as="geometry">
            <mxPoint x="-140" y="2174" as="sourcePoint" />
            <mxPoint x="1440" y="2174" as="targetPoint" />
            <mxPoint as="offset" />
          </mxGeometry>
        </mxCell>
        <mxCell id="rFldnTflBnJy9byAghej-54" value="Обновленный главный экран" style="html=1;verticalAlign=bottom;endArrow=open;dashed=1;endSize=8;curved=0;rounded=0;" edge="1" parent="1" source="rFldnTflBnJy9byAghej-52">
          <mxGeometry x="-0.0002" relative="1" as="geometry">
            <mxPoint x="1440" y="2284.5" as="sourcePoint" />
            <mxPoint x="-140" y="2284" as="targetPoint" />
            <mxPoint as="offset" />
          </mxGeometry>
        </mxCell>
        <mxCell id="rFldnTflBnJy9byAghej-56" value="Запрос последней информации о&amp;nbsp;&lt;br&gt;главном экране" style="html=1;verticalAlign=bottom;endArrow=block;curved=0;rounded=0;" edge="1" parent="1" source="rFldnTflBnJy9byAghej-52">
          <mxGeometry x="-0.0016" width="80" relative="1" as="geometry">
            <mxPoint x="1460" y="2194" as="sourcePoint" />
            <mxPoint x="1665" y="2194" as="targetPoint" />
            <mxPoint as="offset" />
          </mxGeometry>
        </mxCell>
        <mxCell id="rFldnTflBnJy9byAghej-57" value="Обновленный главный экран" style="html=1;verticalAlign=bottom;endArrow=open;dashed=1;endSize=8;curved=0;rounded=0;" edge="1" parent="1" target="rFldnTflBnJy9byAghej-52">
          <mxGeometry x="-0.0023" relative="1" as="geometry">
            <mxPoint x="1665" y="2254" as="sourcePoint" />
            <mxPoint x="1460" y="2254" as="targetPoint" />
            <mxPoint as="offset" />
          </mxGeometry>
        </mxCell>
        <mxCell id="rFldnTflBnJy9byAghej-58" value="" style="html=1;points=[];perimeter=orthogonalPerimeter;outlineConnect=0;targetShapes=umlLifeline;portConstraint=eastwest;newEdgeStyle={&quot;edgeStyle&quot;:&quot;elbowEdgeStyle&quot;,&quot;elbow&quot;:&quot;vertical&quot;,&quot;curved&quot;:0,&quot;rounded&quot;:0};" vertex="1" parent="1">
          <mxGeometry x="960" y="1023" width="10" height="97" as="geometry" />
        </mxCell>
        <mxCell id="rFldnTflBnJy9byAghej-59" value="Перейти в раздел категории подписок" style="html=1;verticalAlign=bottom;endArrow=block;curved=0;rounded=0;" edge="1" parent="1">
          <mxGeometry x="-0.0002" width="80" relative="1" as="geometry">
            <mxPoint x="-140" y="1023" as="sourcePoint" />
            <mxPoint x="960" y="1023" as="targetPoint" />
            <mxPoint as="offset" />
          </mxGeometry>
        </mxCell>
        <mxCell id="rFldnTflBnJy9byAghej-60" value="Список сервисов по категории" style="html=1;verticalAlign=bottom;endArrow=open;dashed=1;endSize=8;curved=0;rounded=0;" edge="1" parent="1" source="rFldnTflBnJy9byAghej-58">
          <mxGeometry x="0.0011" relative="1" as="geometry">
            <mxPoint x="960" y="1120.4999999999998" as="sourcePoint" />
            <mxPoint x="-140" y="1120.4999999999995" as="targetPoint" />
            <mxPoint as="offset" />
          </mxGeometry>
        </mxCell>
        <mxCell id="rFldnTflBnJy9byAghej-64" value="" style="html=1;points=[];perimeter=orthogonalPerimeter;outlineConnect=0;targetShapes=umlLifeline;portConstraint=eastwest;newEdgeStyle={&quot;edgeStyle&quot;:&quot;elbowEdgeStyle&quot;,&quot;elbow&quot;:&quot;vertical&quot;,&quot;curved&quot;:0,&quot;rounded&quot;:0};" vertex="1" parent="1">
          <mxGeometry x="961" y="1326" width="10" height="330" as="geometry" />
        </mxCell>
        <mxCell id="rFldnTflBnJy9byAghej-65" value="" style="html=1;points=[];perimeter=orthogonalPerimeter;outlineConnect=0;targetShapes=umlLifeline;portConstraint=eastwest;newEdgeStyle={&quot;edgeStyle&quot;:&quot;elbowEdgeStyle&quot;,&quot;elbow&quot;:&quot;vertical&quot;,&quot;curved&quot;:0,&quot;rounded&quot;:0};" vertex="1" parent="1">
          <mxGeometry x="1186" y="1346" width="10" height="140" as="geometry" />
        </mxCell>
        <mxCell id="rFldnTflBnJy9byAghej-66" value="Оплатить подписку" style="html=1;verticalAlign=bottom;endArrow=block;curved=0;rounded=0;" edge="1" parent="1">
          <mxGeometry x="-0.0009" width="80" relative="1" as="geometry">
            <mxPoint x="-139" y="1326" as="sourcePoint" />
            <mxPoint x="961" y="1326" as="targetPoint" />
            <mxPoint as="offset" />
          </mxGeometry>
        </mxCell>
        <mxCell id="rFldnTflBnJy9byAghej-67" value="Чек об оплате" style="html=1;verticalAlign=bottom;endArrow=open;dashed=1;endSize=8;curved=0;rounded=0;" edge="1" parent="1">
          <mxGeometry relative="1" as="geometry">
            <mxPoint x="961" y="1436.5" as="sourcePoint" />
            <mxPoint x="-139" y="1435.9999999999995" as="targetPoint" />
            <mxPoint as="offset" />
          </mxGeometry>
        </mxCell>
        <mxCell id="rFldnTflBnJy9byAghej-68" value="Добавление новой подписки" style="html=1;verticalAlign=bottom;endArrow=block;curved=0;rounded=0;" edge="1" parent="1">
          <mxGeometry x="-0.0012" width="80" relative="1" as="geometry">
            <mxPoint x="971" y="1346" as="sourcePoint" />
            <mxPoint x="1186" y="1346" as="targetPoint" />
            <mxPoint as="offset" />
          </mxGeometry>
        </mxCell>
        <mxCell id="rFldnTflBnJy9byAghej-69" value="" style="html=1;verticalAlign=bottom;endArrow=open;dashed=1;endSize=8;curved=0;rounded=0;" edge="1" parent="1">
          <mxGeometry relative="1" as="geometry">
            <mxPoint x="1186" y="1406" as="sourcePoint" />
            <mxPoint x="971" y="1406.5" as="targetPoint" />
            <mxPoint as="offset" />
          </mxGeometry>
        </mxCell>
        <mxCell id="rFldnTflBnJy9byAghej-81" value="Подтверждение оплаты" style="edgeLabel;html=1;align=center;verticalAlign=middle;resizable=0;points=[];" vertex="1" connectable="0" parent="rFldnTflBnJy9byAghej-69">
          <mxGeometry x="-0.0813" y="-2" relative="1" as="geometry">
            <mxPoint y="-8" as="offset" />
          </mxGeometry>
        </mxCell>
        <mxCell id="rFldnTflBnJy9byAghej-82" value="Отмена оплаты" style="edgeLabel;html=1;align=center;verticalAlign=middle;resizable=0;points=[];" vertex="1" connectable="0" parent="rFldnTflBnJy9byAghej-69">
          <mxGeometry x="-0.0813" y="-2" relative="1" as="geometry">
            <mxPoint x="2" y="74" as="offset" />
          </mxGeometry>
        </mxCell>
        <mxCell id="JDW7fGdjqn5SQFJFb9Jk-26" value="Обновленный список приоритизации&lt;br&gt;&amp;nbsp;способов оплаты" style="edgeLabel;html=1;align=center;verticalAlign=middle;resizable=0;points=[];" connectable="0" vertex="1" parent="rFldnTflBnJy9byAghej-69">
          <mxGeometry x="-0.0813" y="-2" relative="1" as="geometry">
            <mxPoint x="-5" y="510" as="offset" />
          </mxGeometry>
        </mxCell>
        <mxCell id="rFldnTflBnJy9byAghej-70" value="Сообщение об ошибке оплаты" style="html=1;verticalAlign=bottom;endArrow=open;dashed=1;endSize=8;curved=0;rounded=0;" edge="1" parent="1">
          <mxGeometry relative="1" as="geometry">
            <mxPoint x="961" y="1517.5" as="sourcePoint" />
            <mxPoint x="-139" y="1516.9999999999995" as="targetPoint" />
            <mxPoint as="offset" />
          </mxGeometry>
        </mxCell>
        <mxCell id="rFldnTflBnJy9byAghej-71" value="" style="html=1;verticalAlign=bottom;endArrow=open;dashed=1;endSize=8;curved=0;rounded=0;" edge="1" parent="1">
          <mxGeometry relative="1" as="geometry">
            <mxPoint x="1186" y="1486" as="sourcePoint" />
            <mxPoint x="971" y="1486.5" as="targetPoint" />
            <mxPoint as="offset" />
          </mxGeometry>
        </mxCell>
        <mxCell id="rFldnTflBnJy9byAghej-90" value="Политика обработки данных" style="html=1;verticalAlign=bottom;endArrow=open;dashed=1;endSize=8;curved=0;rounded=0;entryX=0.764;entryY=-0.01;entryDx=0;entryDy=0;entryPerimeter=0;" edge="1" parent="1">
          <mxGeometry x="-0.0008" relative="1" as="geometry">
            <mxPoint x="960.9999999999995" y="1656.3000000000002" as="sourcePoint" />
            <mxPoint x="-139.8375939849625" y="1656.3000000000002" as="targetPoint" />
            <mxPoint as="offset" />
          </mxGeometry>
        </mxCell>
        <mxCell id="KeWvBjnG3KHDykmNAj6I-13" value="Поиск подписок пользователя по&lt;br&gt;&amp;nbsp;параметрам сортировки/фильтрации" style="html=1;verticalAlign=bottom;endArrow=block;curved=0;rounded=0;" edge="1" parent="1">
          <mxGeometry x="-0.0016" width="80" relative="1" as="geometry">
            <mxPoint x="1455" y="2359" as="sourcePoint" />
            <mxPoint x="1665" y="2359" as="targetPoint" />
            <mxPoint as="offset" />
          </mxGeometry>
        </mxCell>
        <mxCell id="KeWvBjnG3KHDykmNAj6I-14" value="Обновленный список подписок&amp;nbsp;&lt;br&gt;пользователя" style="html=1;verticalAlign=bottom;endArrow=open;dashed=1;endSize=8;curved=0;rounded=0;" edge="1" parent="1">
          <mxGeometry x="-0.0007" relative="1" as="geometry">
            <mxPoint x="1666" y="2399" as="sourcePoint" />
            <mxPoint x="1455" y="2399" as="targetPoint" />
            <mxPoint as="offset" />
          </mxGeometry>
        </mxCell>
        <mxCell id="NpspN3ju-j2PqQsizrWQ-3" value="Отфильтровать сервисы пользователя по ключевым &lt;br&gt;параметрам/отсортировать" style="html=1;verticalAlign=bottom;endArrow=block;curved=0;rounded=0;" edge="1" parent="1">
          <mxGeometry x="-0.0004" width="80" relative="1" as="geometry">
            <mxPoint x="-140" y="2337" as="sourcePoint" />
            <mxPoint x="1445" y="2337" as="targetPoint" />
            <mxPoint as="offset" />
          </mxGeometry>
        </mxCell>
        <mxCell id="NpspN3ju-j2PqQsizrWQ-4" value="Обновленный список сервисов пользователя" style="html=1;verticalAlign=bottom;endArrow=open;dashed=1;endSize=8;curved=0;rounded=0;" edge="1" parent="1">
          <mxGeometry x="0.0015" relative="1" as="geometry">
            <mxPoint x="1445" y="2423.4999999999995" as="sourcePoint" />
            <mxPoint x="-140" y="2423.4999999999995" as="targetPoint" />
            <mxPoint as="offset" />
          </mxGeometry>
        </mxCell>
        <mxCell id="KeWvBjnG3KHDykmNAj6I-2" value="Перейти в раздел &quot;Мои подписки&quot;" style="html=1;verticalAlign=bottom;endArrow=block;curved=0;rounded=0;" edge="1" parent="1">
          <mxGeometry x="-0.0002" width="80" relative="1" as="geometry">
            <mxPoint x="-140" y="2030" as="sourcePoint" />
            <mxPoint x="1445" y="2030" as="targetPoint" />
            <mxPoint as="offset" />
          </mxGeometry>
        </mxCell>
        <mxCell id="KeWvBjnG3KHDykmNAj6I-3" value="Список подписок пользователя" style="html=1;verticalAlign=bottom;endArrow=open;dashed=1;endSize=8;curved=0;rounded=0;movable=1;resizable=1;rotatable=1;deletable=1;editable=1;locked=0;connectable=1;" edge="1" parent="1">
          <mxGeometry x="0.002" relative="1" as="geometry">
            <mxPoint x="1445" y="2139.4999999999995" as="sourcePoint" />
            <mxPoint x="-140" y="2139.4999999999995" as="targetPoint" />
            <mxPoint as="offset" />
          </mxGeometry>
        </mxCell>
        <mxCell id="KeWvBjnG3KHDykmNAj6I-19" value="" style="html=1;points=[];perimeter=orthogonalPerimeter;outlineConnect=0;targetShapes=umlLifeline;portConstraint=eastwest;newEdgeStyle={&quot;edgeStyle&quot;:&quot;elbowEdgeStyle&quot;,&quot;elbow&quot;:&quot;vertical&quot;,&quot;curved&quot;:0,&quot;rounded&quot;:0};" vertex="1" parent="1">
          <mxGeometry x="1445" y="2474" width="10" height="87" as="geometry" />
        </mxCell>
        <mxCell id="KeWvBjnG3KHDykmNAj6I-20" value="" style="html=1;points=[];perimeter=orthogonalPerimeter;outlineConnect=0;targetShapes=umlLifeline;portConstraint=eastwest;newEdgeStyle={&quot;edgeStyle&quot;:&quot;elbowEdgeStyle&quot;,&quot;elbow&quot;:&quot;vertical&quot;,&quot;curved&quot;:0,&quot;rounded&quot;:0};" vertex="1" parent="1">
          <mxGeometry x="1665" y="2496" width="10" height="40" as="geometry" />
        </mxCell>
        <mxCell id="KeWvBjnG3KHDykmNAj6I-21" value="Добавить активную подписку" style="html=1;verticalAlign=bottom;endArrow=block;curved=0;rounded=0;" edge="1" parent="1">
          <mxGeometry x="-0.0024" width="80" relative="1" as="geometry">
            <mxPoint x="1455" y="2496" as="sourcePoint" />
            <mxPoint x="1665" y="2496" as="targetPoint" />
            <mxPoint as="offset" />
          </mxGeometry>
        </mxCell>
        <mxCell id="KeWvBjnG3KHDykmNAj6I-22" value="Обновленный список подписок&amp;nbsp;&lt;br&gt;пользователя" style="html=1;verticalAlign=bottom;endArrow=open;dashed=1;endSize=8;curved=0;rounded=0;" edge="1" parent="1">
          <mxGeometry x="-0.0007" relative="1" as="geometry">
            <mxPoint x="1666" y="2536" as="sourcePoint" />
            <mxPoint x="1455" y="2536" as="targetPoint" />
            <mxPoint as="offset" />
          </mxGeometry>
        </mxCell>
        <mxCell id="KeWvBjnG3KHDykmNAj6I-23" value="Добавить активную подписку пользователя" style="html=1;verticalAlign=bottom;endArrow=block;curved=0;rounded=0;" edge="1" parent="1">
          <mxGeometry x="-0.0002" width="80" relative="1" as="geometry">
            <mxPoint x="-140" y="2474" as="sourcePoint" />
            <mxPoint x="1445" y="2474" as="targetPoint" />
            <mxPoint as="offset" />
          </mxGeometry>
        </mxCell>
        <mxCell id="KeWvBjnG3KHDykmNAj6I-24" value="Обновленный список сервисов пользователя" style="html=1;verticalAlign=bottom;endArrow=open;dashed=1;endSize=8;curved=0;rounded=0;" edge="1" parent="1">
          <mxGeometry x="0.0015" relative="1" as="geometry">
            <mxPoint x="1445" y="2560.4999999999995" as="sourcePoint" />
            <mxPoint x="-140" y="2560.4999999999995" as="targetPoint" />
            <mxPoint as="offset" />
          </mxGeometry>
        </mxCell>
        <mxCell id="KeWvBjnG3KHDykmNAj6I-12" value="" style="html=1;points=[];perimeter=orthogonalPerimeter;outlineConnect=0;targetShapes=umlLifeline;portConstraint=eastwest;newEdgeStyle={&quot;edgeStyle&quot;:&quot;elbowEdgeStyle&quot;,&quot;elbow&quot;:&quot;vertical&quot;,&quot;curved&quot;:0,&quot;rounded&quot;:0};" vertex="1" parent="1">
          <mxGeometry x="1665" y="2359" width="10" height="40" as="geometry" />
        </mxCell>
        <mxCell id="KeWvBjnG3KHDykmNAj6I-15" value="" style="html=1;points=[];perimeter=orthogonalPerimeter;outlineConnect=0;targetShapes=umlLifeline;portConstraint=eastwest;newEdgeStyle={&quot;edgeStyle&quot;:&quot;elbowEdgeStyle&quot;,&quot;elbow&quot;:&quot;vertical&quot;,&quot;curved&quot;:0,&quot;rounded&quot;:0};" vertex="1" parent="1">
          <mxGeometry x="1185" y="1211" width="10" height="40" as="geometry" />
        </mxCell>
        <mxCell id="KeWvBjnG3KHDykmNAj6I-16" value="Запрос обновленного описания&lt;br&gt;сервиса" style="html=1;verticalAlign=bottom;endArrow=block;curved=0;rounded=0;" edge="1" parent="1">
          <mxGeometry x="-0.0041" width="80" relative="1" as="geometry">
            <mxPoint x="970" y="1211" as="sourcePoint" />
            <mxPoint x="1185" y="1211" as="targetPoint" />
            <mxPoint as="offset" />
          </mxGeometry>
        </mxCell>
        <mxCell id="KeWvBjnG3KHDykmNAj6I-17" value="Обновленное описание&amp;nbsp;&lt;br&gt;сервиса" style="html=1;verticalAlign=bottom;endArrow=open;dashed=1;endSize=8;curved=0;rounded=0;" edge="1" parent="1">
          <mxGeometry relative="1" as="geometry">
            <mxPoint x="1186" y="1251" as="sourcePoint" />
            <mxPoint x="971" y="1251.5" as="targetPoint" />
            <mxPoint as="offset" />
          </mxGeometry>
        </mxCell>
        <mxCell id="rFldnTflBnJy9byAghej-55" value="" style="html=1;points=[];perimeter=orthogonalPerimeter;outlineConnect=0;targetShapes=umlLifeline;portConstraint=eastwest;newEdgeStyle={&quot;edgeStyle&quot;:&quot;elbowEdgeStyle&quot;,&quot;elbow&quot;:&quot;vertical&quot;,&quot;curved&quot;:0,&quot;rounded&quot;:0};" vertex="1" parent="1">
          <mxGeometry x="1665" y="2194" width="10" height="60" as="geometry" />
        </mxCell>
        <mxCell id="rFldnTflBnJy9byAghej-52" value="" style="html=1;points=[];perimeter=orthogonalPerimeter;outlineConnect=0;targetShapes=umlLifeline;portConstraint=eastwest;newEdgeStyle={&quot;edgeStyle&quot;:&quot;elbowEdgeStyle&quot;,&quot;elbow&quot;:&quot;vertical&quot;,&quot;curved&quot;:0,&quot;rounded&quot;:0};" vertex="1" parent="1">
          <mxGeometry x="1445" y="2174" width="10" height="110" as="geometry" />
        </mxCell>
        <mxCell id="rFldnTflBnJy9byAghej-61" value="" style="html=1;points=[];perimeter=orthogonalPerimeter;outlineConnect=0;targetShapes=umlLifeline;portConstraint=eastwest;newEdgeStyle={&quot;edgeStyle&quot;:&quot;elbowEdgeStyle&quot;,&quot;elbow&quot;:&quot;vertical&quot;,&quot;curved&quot;:0,&quot;rounded&quot;:0};" vertex="1" parent="1">
          <mxGeometry x="960" y="1185" width="10" height="87" as="geometry" />
        </mxCell>
        <mxCell id="rFldnTflBnJy9byAghej-62" value="Перейти на страницу описания сервиса-подписки" style="html=1;verticalAlign=bottom;endArrow=block;curved=0;rounded=0;" edge="1" parent="1">
          <mxGeometry x="-0.0002" width="80" relative="1" as="geometry">
            <mxPoint x="-140" y="1185" as="sourcePoint" />
            <mxPoint x="960" y="1185" as="targetPoint" />
            <mxPoint as="offset" />
          </mxGeometry>
        </mxCell>
        <mxCell id="rFldnTflBnJy9byAghej-63" value="Подробная информация по сервису-подписке" style="html=1;verticalAlign=bottom;endArrow=open;dashed=1;endSize=8;curved=0;rounded=0;" edge="1" parent="1">
          <mxGeometry x="0.001" relative="1" as="geometry">
            <mxPoint x="960" y="1271.4999999999995" as="sourcePoint" />
            <mxPoint x="-140" y="1271.4999999999995" as="targetPoint" />
            <mxPoint as="offset" />
          </mxGeometry>
        </mxCell>
        <mxCell id="KeWvBjnG3KHDykmNAj6I-31" value="" style="html=1;points=[];perimeter=orthogonalPerimeter;outlineConnect=0;targetShapes=umlLifeline;portConstraint=eastwest;newEdgeStyle={&quot;edgeStyle&quot;:&quot;elbowEdgeStyle&quot;,&quot;elbow&quot;:&quot;vertical&quot;,&quot;curved&quot;:0,&quot;rounded&quot;:0};" vertex="1" parent="1">
          <mxGeometry x="961" y="718" width="10" height="87" as="geometry" />
        </mxCell>
        <mxCell id="KeWvBjnG3KHDykmNAj6I-32" value="" style="html=1;points=[];perimeter=orthogonalPerimeter;outlineConnect=0;targetShapes=umlLifeline;portConstraint=eastwest;newEdgeStyle={&quot;edgeStyle&quot;:&quot;elbowEdgeStyle&quot;,&quot;elbow&quot;:&quot;vertical&quot;,&quot;curved&quot;:0,&quot;rounded&quot;:0};" vertex="1" parent="1">
          <mxGeometry x="1185" y="740" width="10" height="40" as="geometry" />
        </mxCell>
        <mxCell id="KeWvBjnG3KHDykmNAj6I-33" value="Добавить активную подписку" style="html=1;verticalAlign=bottom;endArrow=block;curved=0;rounded=0;" edge="1" parent="1" target="KeWvBjnG3KHDykmNAj6I-32">
          <mxGeometry width="80" relative="1" as="geometry">
            <mxPoint x="971" y="740" as="sourcePoint" />
            <mxPoint x="1181" y="740" as="targetPoint" />
            <mxPoint as="offset" />
          </mxGeometry>
        </mxCell>
        <mxCell id="KeWvBjnG3KHDykmNAj6I-34" value="Обновленный список подписок&amp;nbsp;&lt;br&gt;пользователя" style="html=1;verticalAlign=bottom;endArrow=open;dashed=1;endSize=8;curved=0;rounded=0;" edge="1" parent="1" source="KeWvBjnG3KHDykmNAj6I-32">
          <mxGeometry relative="1" as="geometry">
            <mxPoint x="1182" y="780" as="sourcePoint" />
            <mxPoint x="971" y="780" as="targetPoint" />
            <mxPoint as="offset" />
          </mxGeometry>
        </mxCell>
        <mxCell id="KeWvBjnG3KHDykmNAj6I-35" value="Добавить активную подписку пользователя" style="html=1;verticalAlign=bottom;endArrow=block;curved=0;rounded=0;" edge="1" parent="1" target="KeWvBjnG3KHDykmNAj6I-31">
          <mxGeometry x="-0.0002" width="80" relative="1" as="geometry">
            <mxPoint x="-140" y="718" as="sourcePoint" />
            <mxPoint x="1445" y="718" as="targetPoint" />
            <mxPoint as="offset" />
          </mxGeometry>
        </mxCell>
        <mxCell id="KeWvBjnG3KHDykmNAj6I-36" value="Обновленный список сервисов пользователя" style="html=1;verticalAlign=bottom;endArrow=open;dashed=1;endSize=8;curved=0;rounded=0;" edge="1" parent="1" source="KeWvBjnG3KHDykmNAj6I-31">
          <mxGeometry x="0.0015" relative="1" as="geometry">
            <mxPoint x="1445" y="804.4999999999995" as="sourcePoint" />
            <mxPoint x="-140" y="804.4999999999995" as="targetPoint" />
            <mxPoint as="offset" />
          </mxGeometry>
        </mxCell>
        <mxCell id="KeWvBjnG3KHDykmNAj6I-41" value="Перейти на страницу деталей подписки" style="html=1;verticalAlign=bottom;endArrow=block;curved=0;rounded=0;" edge="1" parent="1" target="KeWvBjnG3KHDykmNAj6I-46">
          <mxGeometry x="-0.0002" width="80" relative="1" as="geometry">
            <mxPoint x="-139" y="2771" as="sourcePoint" />
            <mxPoint x="961" y="2771" as="targetPoint" />
            <mxPoint as="offset" />
          </mxGeometry>
        </mxCell>
        <mxCell id="KeWvBjnG3KHDykmNAj6I-42" value="Подробная информация по выбранной подписке" style="html=1;verticalAlign=bottom;endArrow=open;dashed=1;endSize=8;curved=0;rounded=0;" edge="1" parent="1">
          <mxGeometry x="0.0015" relative="1" as="geometry">
            <mxPoint x="1445" y="2860.4999999999995" as="sourcePoint" />
            <mxPoint x="-139" y="2860.4999999999995" as="targetPoint" />
            <mxPoint as="offset" />
          </mxGeometry>
        </mxCell>
        <mxCell id="KeWvBjnG3KHDykmNAj6I-43" value="" style="html=1;points=[];perimeter=orthogonalPerimeter;outlineConnect=0;targetShapes=umlLifeline;portConstraint=eastwest;newEdgeStyle={&quot;edgeStyle&quot;:&quot;elbowEdgeStyle&quot;,&quot;elbow&quot;:&quot;vertical&quot;,&quot;curved&quot;:0,&quot;rounded&quot;:0};" vertex="1" parent="1">
          <mxGeometry x="1665" y="2799.5" width="10" height="40" as="geometry" />
        </mxCell>
        <mxCell id="KeWvBjnG3KHDykmNAj6I-44" value="Запрос обновленного описания&lt;br&gt;сервиса" style="html=1;verticalAlign=bottom;endArrow=block;curved=0;rounded=0;" edge="1" parent="1" source="KeWvBjnG3KHDykmNAj6I-46">
          <mxGeometry width="80" relative="1" as="geometry">
            <mxPoint x="1460" y="2800" as="sourcePoint" />
            <mxPoint x="1665" y="2799.5" as="targetPoint" />
          </mxGeometry>
        </mxCell>
        <mxCell id="KeWvBjnG3KHDykmNAj6I-45" value="Обновленное описание&amp;nbsp;&lt;br&gt;сервиса" style="html=1;verticalAlign=bottom;endArrow=open;dashed=1;endSize=8;curved=0;rounded=0;" edge="1" parent="1" target="KeWvBjnG3KHDykmNAj6I-46">
          <mxGeometry x="-0.003" relative="1" as="geometry">
            <mxPoint x="1666" y="2839.5" as="sourcePoint" />
            <mxPoint x="1451" y="2840" as="targetPoint" />
            <mxPoint as="offset" />
          </mxGeometry>
        </mxCell>
        <mxCell id="J0ivfyZUBT2b_pjf1fy_-77" value="" style="html=1;points=[];perimeter=orthogonalPerimeter;outlineConnect=0;targetShapes=umlLifeline;portConstraint=eastwest;newEdgeStyle={&quot;edgeStyle&quot;:&quot;elbowEdgeStyle&quot;,&quot;elbow&quot;:&quot;vertical&quot;,&quot;curved&quot;:0,&quot;rounded&quot;:0};" vertex="1" parent="1">
          <mxGeometry x="1445" y="2337" width="10" height="87" as="geometry" />
        </mxCell>
        <mxCell id="KeWvBjnG3KHDykmNAj6I-46" value="" style="html=1;points=[];perimeter=orthogonalPerimeter;outlineConnect=0;targetShapes=umlLifeline;portConstraint=eastwest;newEdgeStyle={&quot;edgeStyle&quot;:&quot;elbowEdgeStyle&quot;,&quot;elbow&quot;:&quot;vertical&quot;,&quot;curved&quot;:0,&quot;rounded&quot;:0};" vertex="1" parent="1">
          <mxGeometry x="1445" y="2773.5" width="10" height="87" as="geometry" />
        </mxCell>
        <mxCell id="KeWvBjnG3KHDykmNAj6I-47" value="" style="html=1;points=[];perimeter=orthogonalPerimeter;outlineConnect=0;targetShapes=umlLifeline;portConstraint=eastwest;newEdgeStyle={&quot;edgeStyle&quot;:&quot;elbowEdgeStyle&quot;,&quot;elbow&quot;:&quot;vertical&quot;,&quot;curved&quot;:0,&quot;rounded&quot;:0};" vertex="1" parent="1">
          <mxGeometry x="1445" y="2624" width="10" height="87" as="geometry" />
        </mxCell>
        <mxCell id="KeWvBjnG3KHDykmNAj6I-48" value="" style="html=1;points=[];perimeter=orthogonalPerimeter;outlineConnect=0;targetShapes=umlLifeline;portConstraint=eastwest;newEdgeStyle={&quot;edgeStyle&quot;:&quot;elbowEdgeStyle&quot;,&quot;elbow&quot;:&quot;vertical&quot;,&quot;curved&quot;:0,&quot;rounded&quot;:0};" vertex="1" parent="1">
          <mxGeometry x="1665" y="2646" width="10" height="40" as="geometry" />
        </mxCell>
        <mxCell id="KeWvBjnG3KHDykmNAj6I-49" value="Отключить активную подписку" style="html=1;verticalAlign=bottom;endArrow=block;curved=0;rounded=0;" edge="1" parent="1">
          <mxGeometry x="-0.0016" width="80" relative="1" as="geometry">
            <mxPoint x="1455" y="2646" as="sourcePoint" />
            <mxPoint x="1665" y="2646" as="targetPoint" />
            <mxPoint as="offset" />
          </mxGeometry>
        </mxCell>
        <mxCell id="KeWvBjnG3KHDykmNAj6I-50" value="Обновленный список подписок&amp;nbsp;&lt;br&gt;пользователя" style="html=1;verticalAlign=bottom;endArrow=open;dashed=1;endSize=8;curved=0;rounded=0;" edge="1" parent="1">
          <mxGeometry x="0.0003" relative="1" as="geometry">
            <mxPoint x="1666" y="2686" as="sourcePoint" />
            <mxPoint x="1455" y="2686" as="targetPoint" />
            <mxPoint as="offset" />
          </mxGeometry>
        </mxCell>
        <mxCell id="KeWvBjnG3KHDykmNAj6I-51" value="Отключить активную подписку пользователя" style="html=1;verticalAlign=bottom;endArrow=block;curved=0;rounded=0;" edge="1" parent="1">
          <mxGeometry x="-0.0002" width="80" relative="1" as="geometry">
            <mxPoint x="-140" y="2624" as="sourcePoint" />
            <mxPoint x="1445" y="2624" as="targetPoint" />
            <mxPoint as="offset" />
          </mxGeometry>
        </mxCell>
        <mxCell id="KeWvBjnG3KHDykmNAj6I-52" value="Обновленный список сервисов пользователя" style="html=1;verticalAlign=bottom;endArrow=open;dashed=1;endSize=8;curved=0;rounded=0;" edge="1" parent="1">
          <mxGeometry x="0.0015" relative="1" as="geometry">
            <mxPoint x="1445" y="2710.4999999999995" as="sourcePoint" />
            <mxPoint x="-140" y="2710.4999999999995" as="targetPoint" />
            <mxPoint as="offset" />
          </mxGeometry>
        </mxCell>
        <mxCell id="KeWvBjnG3KHDykmNAj6I-53" value="Перейти к календарю платежей пользователя" style="html=1;verticalAlign=bottom;endArrow=block;curved=0;rounded=0;" edge="1" parent="1">
          <mxGeometry x="-0.0002" width="80" relative="1" as="geometry">
            <mxPoint x="-139" y="2934" as="sourcePoint" />
            <mxPoint x="1900" y="2934" as="targetPoint" />
            <mxPoint as="offset" />
          </mxGeometry>
        </mxCell>
        <mxCell id="KeWvBjnG3KHDykmNAj6I-54" value="Обновленный календарь платежей&amp;nbsp;пользователя" style="html=1;verticalAlign=bottom;endArrow=open;dashed=1;endSize=8;curved=0;rounded=0;" edge="1" parent="1" source="KeWvBjnG3KHDykmNAj6I-58">
          <mxGeometry x="0.0015" relative="1" as="geometry">
            <mxPoint x="1445" y="3023.4999999999995" as="sourcePoint" />
            <mxPoint x="-139" y="3023.4999999999995" as="targetPoint" />
            <mxPoint as="offset" />
          </mxGeometry>
        </mxCell>
        <mxCell id="KeWvBjnG3KHDykmNAj6I-59" value="Изменить дату просмотра календаря платежей пользователя" style="html=1;verticalAlign=bottom;endArrow=block;curved=0;rounded=0;" edge="1" parent="1" target="KeWvBjnG3KHDykmNAj6I-64">
          <mxGeometry x="-0.0002" width="80" relative="1" as="geometry">
            <mxPoint x="-139" y="3064" as="sourcePoint" />
            <mxPoint x="1445" y="3067" as="targetPoint" />
            <mxPoint as="offset" />
          </mxGeometry>
        </mxCell>
        <mxCell id="KeWvBjnG3KHDykmNAj6I-60" value="Обновленный календарь платежей&amp;nbsp;пользователя" style="html=1;verticalAlign=bottom;endArrow=open;dashed=1;endSize=8;curved=0;rounded=0;" edge="1" parent="1" source="KeWvBjnG3KHDykmNAj6I-64">
          <mxGeometry x="0.0015" relative="1" as="geometry">
            <mxPoint x="1445" y="3154.4999999999995" as="sourcePoint" />
            <mxPoint x="-139" y="3154.4999999999995" as="targetPoint" />
            <mxPoint as="offset" />
          </mxGeometry>
        </mxCell>
        <mxCell id="KeWvBjnG3KHDykmNAj6I-65" value="Перейти к выбранному дню списания в календаре платежей пользователя" style="html=1;verticalAlign=bottom;endArrow=block;curved=0;rounded=0;" edge="1" parent="1" target="KeWvBjnG3KHDykmNAj6I-70">
          <mxGeometry x="-0.0002" width="80" relative="1" as="geometry">
            <mxPoint x="-139" y="3194" as="sourcePoint" />
            <mxPoint x="1445" y="3197" as="targetPoint" />
            <mxPoint as="offset" />
          </mxGeometry>
        </mxCell>
        <mxCell id="KeWvBjnG3KHDykmNAj6I-66" value="Подробная информация по выбранному дню списания" style="html=1;verticalAlign=bottom;endArrow=open;dashed=1;endSize=8;curved=0;rounded=0;" edge="1" parent="1">
          <mxGeometry x="0.0015" relative="1" as="geometry">
            <mxPoint x="1900" y="3285.4999999999995" as="sourcePoint" />
            <mxPoint x="-139" y="3285.4999999999995" as="targetPoint" />
            <mxPoint as="offset" />
          </mxGeometry>
        </mxCell>
        <mxCell id="eTcKTINWj4xvGDkXFavp-1" value="Сервис истории платежей" style="shape=umlLifeline;perimeter=lifelinePerimeter;whiteSpace=wrap;html=1;container=0;dropTarget=0;collapsible=0;recursiveResize=0;outlineConnect=0;portConstraint=eastwest;newEdgeStyle={&quot;edgeStyle&quot;:&quot;elbowEdgeStyle&quot;,&quot;elbow&quot;:&quot;vertical&quot;,&quot;curved&quot;:0,&quot;rounded&quot;:0};movable=1;resizable=1;rotatable=1;deletable=1;editable=1;locked=0;connectable=1;" vertex="1" parent="1">
          <mxGeometry x="2110" y="110" width="100" height="4890" as="geometry" />
        </mxCell>
        <mxCell id="KeWvBjnG3KHDykmNAj6I-56" value="Запрос обновленного календаря&amp;nbsp;&lt;br&gt;платежей" style="html=1;verticalAlign=bottom;endArrow=block;curved=0;rounded=0;" edge="1" parent="eTcKTINWj4xvGDkXFavp-1" target="KeWvBjnG3KHDykmNAj6I-55">
          <mxGeometry width="80" relative="1" as="geometry">
            <mxPoint x="-200" y="2849" as="sourcePoint" />
            <mxPoint x="10" y="2848.5" as="targetPoint" />
          </mxGeometry>
        </mxCell>
        <mxCell id="KeWvBjnG3KHDykmNAj6I-57" value="Обновленный календарь&lt;br&gt;&amp;nbsp;платежей&amp;nbsp;пользователя" style="html=1;verticalAlign=bottom;endArrow=open;dashed=1;endSize=8;curved=0;rounded=0;" edge="1" parent="eTcKTINWj4xvGDkXFavp-1" source="KeWvBjnG3KHDykmNAj6I-55">
          <mxGeometry relative="1" as="geometry">
            <mxPoint x="11" y="2888.5" as="sourcePoint" />
            <mxPoint x="-200" y="2889" as="targetPoint" />
            <mxPoint as="offset" />
          </mxGeometry>
        </mxCell>
        <mxCell id="KeWvBjnG3KHDykmNAj6I-58" value="" style="html=1;points=[];perimeter=orthogonalPerimeter;outlineConnect=0;targetShapes=umlLifeline;portConstraint=eastwest;newEdgeStyle={&quot;edgeStyle&quot;:&quot;elbowEdgeStyle&quot;,&quot;elbow&quot;:&quot;vertical&quot;,&quot;curved&quot;:0,&quot;rounded&quot;:0};movable=1;resizable=1;rotatable=1;deletable=1;editable=1;locked=0;connectable=1;" vertex="1" parent="eTcKTINWj4xvGDkXFavp-1">
          <mxGeometry x="-210" y="2824" width="10" height="87" as="geometry" />
        </mxCell>
        <mxCell id="KeWvBjnG3KHDykmNAj6I-62" value="Запрос обновленного календаря&amp;nbsp;&lt;br&gt;платежей" style="html=1;verticalAlign=bottom;endArrow=block;curved=0;rounded=0;" edge="1" parent="eTcKTINWj4xvGDkXFavp-1" target="KeWvBjnG3KHDykmNAj6I-61">
          <mxGeometry width="80" relative="1" as="geometry">
            <mxPoint x="-200" y="2979" as="sourcePoint" />
            <mxPoint x="10" y="2978.5" as="targetPoint" />
          </mxGeometry>
        </mxCell>
        <mxCell id="KeWvBjnG3KHDykmNAj6I-63" value="Обновленный календарь&lt;br&gt;&amp;nbsp;платежей пользователя" style="html=1;verticalAlign=bottom;endArrow=open;dashed=1;endSize=8;curved=0;rounded=0;" edge="1" parent="eTcKTINWj4xvGDkXFavp-1" source="KeWvBjnG3KHDykmNAj6I-61">
          <mxGeometry relative="1" as="geometry">
            <mxPoint x="11" y="3018.5" as="sourcePoint" />
            <mxPoint x="-200" y="3019" as="targetPoint" />
            <mxPoint as="offset" />
          </mxGeometry>
        </mxCell>
        <mxCell id="KeWvBjnG3KHDykmNAj6I-64" value="" style="html=1;points=[];perimeter=orthogonalPerimeter;outlineConnect=0;targetShapes=umlLifeline;portConstraint=eastwest;newEdgeStyle={&quot;edgeStyle&quot;:&quot;elbowEdgeStyle&quot;,&quot;elbow&quot;:&quot;vertical&quot;,&quot;curved&quot;:0,&quot;rounded&quot;:0};" vertex="1" parent="eTcKTINWj4xvGDkXFavp-1">
          <mxGeometry x="-210" y="2958" width="10" height="87" as="geometry" />
        </mxCell>
        <mxCell id="KeWvBjnG3KHDykmNAj6I-68" value="Запрос информации по&lt;br&gt;дню списания" style="html=1;verticalAlign=bottom;endArrow=block;curved=0;rounded=0;" edge="1" parent="eTcKTINWj4xvGDkXFavp-1" target="KeWvBjnG3KHDykmNAj6I-67">
          <mxGeometry width="80" relative="1" as="geometry">
            <mxPoint x="-200" y="3109" as="sourcePoint" />
            <mxPoint x="10" y="3108.5" as="targetPoint" />
          </mxGeometry>
        </mxCell>
        <mxCell id="KeWvBjnG3KHDykmNAj6I-69" value="Подробная информация &lt;br&gt;по выбранному дню списания" style="html=1;verticalAlign=bottom;endArrow=open;dashed=1;endSize=8;curved=0;rounded=0;" edge="1" parent="eTcKTINWj4xvGDkXFavp-1" source="KeWvBjnG3KHDykmNAj6I-67">
          <mxGeometry relative="1" as="geometry">
            <mxPoint x="11" y="3148.5" as="sourcePoint" />
            <mxPoint x="-200" y="3149" as="targetPoint" />
            <mxPoint as="offset" />
          </mxGeometry>
        </mxCell>
        <mxCell id="KeWvBjnG3KHDykmNAj6I-70" value="" style="html=1;points=[];perimeter=orthogonalPerimeter;outlineConnect=0;targetShapes=umlLifeline;portConstraint=eastwest;newEdgeStyle={&quot;edgeStyle&quot;:&quot;elbowEdgeStyle&quot;,&quot;elbow&quot;:&quot;vertical&quot;,&quot;curved&quot;:0,&quot;rounded&quot;:0};" vertex="1" parent="eTcKTINWj4xvGDkXFavp-1">
          <mxGeometry x="-210" y="3088" width="10" height="87" as="geometry" />
        </mxCell>
        <mxCell id="SgX2f3MI7TWej8Hia5gL-1" value="" style="html=1;points=[];perimeter=orthogonalPerimeter;outlineConnect=0;targetShapes=umlLifeline;portConstraint=eastwest;newEdgeStyle={&quot;edgeStyle&quot;:&quot;elbowEdgeStyle&quot;,&quot;elbow&quot;:&quot;vertical&quot;,&quot;curved&quot;:0,&quot;rounded&quot;:0};movable=1;resizable=1;rotatable=1;deletable=1;editable=1;locked=0;connectable=1;" vertex="1" parent="1">
          <mxGeometry x="2425" y="3725" width="10" height="40" as="geometry" />
        </mxCell>
        <mxCell id="SgX2f3MI7TWej8Hia5gL-2" value="Перейти к истории платежей пользователя" style="html=1;verticalAlign=bottom;endArrow=block;curved=0;rounded=0;" edge="1" parent="1">
          <mxGeometry x="-0.0002" width="80" relative="1" as="geometry">
            <mxPoint x="-139" y="3699" as="sourcePoint" />
            <mxPoint x="2155" y="3699" as="targetPoint" />
            <mxPoint as="offset" />
          </mxGeometry>
        </mxCell>
        <mxCell id="SgX2f3MI7TWej8Hia5gL-3" value="Обновленный список истории платежей&amp;nbsp;пользователя" style="html=1;verticalAlign=bottom;endArrow=open;dashed=1;endSize=8;curved=0;rounded=0;" edge="1" parent="1" source="SgX2f3MI7TWej8Hia5gL-6">
          <mxGeometry x="0.0015" relative="1" as="geometry">
            <mxPoint x="1445" y="3788.4999999999995" as="sourcePoint" />
            <mxPoint x="-139" y="3788.4999999999995" as="targetPoint" />
            <mxPoint as="offset" />
          </mxGeometry>
        </mxCell>
        <mxCell id="SgX2f3MI7TWej8Hia5gL-4" value="Запрос обновленного списка истории&amp;nbsp;&lt;br&gt;платежей" style="html=1;verticalAlign=bottom;endArrow=block;curved=0;rounded=0;" edge="1" parent="1" target="SgX2f3MI7TWej8Hia5gL-1">
          <mxGeometry width="80" relative="1" as="geometry">
            <mxPoint x="2165" y="3725" as="sourcePoint" />
            <mxPoint x="2375" y="3724.5" as="targetPoint" />
          </mxGeometry>
        </mxCell>
        <mxCell id="SgX2f3MI7TWej8Hia5gL-5" value="Обновленный список истории&lt;br&gt;&amp;nbsp;платежей&amp;nbsp;пользователя" style="html=1;verticalAlign=bottom;endArrow=open;dashed=1;endSize=8;curved=0;rounded=0;" edge="1" parent="1" source="SgX2f3MI7TWej8Hia5gL-1">
          <mxGeometry x="0.0019" relative="1" as="geometry">
            <mxPoint x="2376" y="3763.5" as="sourcePoint" />
            <mxPoint x="2165" y="3764" as="targetPoint" />
            <mxPoint as="offset" />
          </mxGeometry>
        </mxCell>
        <mxCell id="SgX2f3MI7TWej8Hia5gL-6" value="" style="html=1;points=[];perimeter=orthogonalPerimeter;outlineConnect=0;targetShapes=umlLifeline;portConstraint=eastwest;newEdgeStyle={&quot;edgeStyle&quot;:&quot;elbowEdgeStyle&quot;,&quot;elbow&quot;:&quot;vertical&quot;,&quot;curved&quot;:0,&quot;rounded&quot;:0};movable=1;resizable=1;rotatable=1;deletable=1;editable=1;locked=0;connectable=1;" vertex="1" parent="1">
          <mxGeometry x="2155" y="3699" width="10" height="87" as="geometry" />
        </mxCell>
        <mxCell id="SgX2f3MI7TWej8Hia5gL-7" value="" style="html=1;points=[];perimeter=orthogonalPerimeter;outlineConnect=0;targetShapes=umlLifeline;portConstraint=eastwest;newEdgeStyle={&quot;edgeStyle&quot;:&quot;elbowEdgeStyle&quot;,&quot;elbow&quot;:&quot;vertical&quot;,&quot;curved&quot;:0,&quot;rounded&quot;:0};movable=1;resizable=1;rotatable=1;deletable=1;editable=1;locked=0;connectable=1;" vertex="1" parent="1">
          <mxGeometry x="2425" y="3863" width="10" height="40" as="geometry" />
        </mxCell>
        <mxCell id="SgX2f3MI7TWej8Hia5gL-8" value="Изменить месяц отображения краткой аналитики &lt;br&gt;истории платежей пользователя" style="html=1;verticalAlign=bottom;endArrow=block;curved=0;rounded=0;" edge="1" parent="1" target="SgX2f3MI7TWej8Hia5gL-12">
          <mxGeometry x="-0.0002" width="80" relative="1" as="geometry">
            <mxPoint x="-138" y="3838" as="sourcePoint" />
            <mxPoint x="1446" y="3841" as="targetPoint" />
            <mxPoint as="offset" />
          </mxGeometry>
        </mxCell>
        <mxCell id="SgX2f3MI7TWej8Hia5gL-9" value="Обновленная краткая аналитика истории&lt;br&gt;&amp;nbsp;платежей&amp;nbsp;пользователя" style="html=1;verticalAlign=bottom;endArrow=open;dashed=1;endSize=8;curved=0;rounded=0;" edge="1" parent="1" source="SgX2f3MI7TWej8Hia5gL-12">
          <mxGeometry x="0.0015" relative="1" as="geometry">
            <mxPoint x="2090" y="3930" as="sourcePoint" />
            <mxPoint x="-140" y="3929.5" as="targetPoint" />
            <mxPoint as="offset" />
          </mxGeometry>
        </mxCell>
        <mxCell id="SgX2f3MI7TWej8Hia5gL-10" value="Запрос обновленной краткой аналитики&amp;nbsp;&lt;div&gt;истории&amp;nbsp;платежей&lt;/div&gt;" style="html=1;verticalAlign=bottom;endArrow=block;curved=0;rounded=0;" edge="1" parent="1" target="SgX2f3MI7TWej8Hia5gL-7">
          <mxGeometry width="80" relative="1" as="geometry">
            <mxPoint x="2165" y="3863.4999999999995" as="sourcePoint" />
            <mxPoint x="2410" y="3863.4999999999995" as="targetPoint" />
          </mxGeometry>
        </mxCell>
        <mxCell id="SgX2f3MI7TWej8Hia5gL-11" value="Обновленная краткая аналитика истории&lt;br&gt;&amp;nbsp;платежей&amp;nbsp;пользователя" style="html=1;verticalAlign=bottom;endArrow=open;dashed=1;endSize=8;curved=0;rounded=0;" edge="1" parent="1" source="SgX2f3MI7TWej8Hia5gL-7">
          <mxGeometry relative="1" as="geometry">
            <mxPoint x="2410" y="3903" as="sourcePoint" />
            <mxPoint x="2165" y="3903" as="targetPoint" />
            <mxPoint as="offset" />
          </mxGeometry>
        </mxCell>
        <mxCell id="SgX2f3MI7TWej8Hia5gL-12" value="" style="html=1;points=[];perimeter=orthogonalPerimeter;outlineConnect=0;targetShapes=umlLifeline;portConstraint=eastwest;newEdgeStyle={&quot;edgeStyle&quot;:&quot;elbowEdgeStyle&quot;,&quot;elbow&quot;:&quot;vertical&quot;,&quot;curved&quot;:0,&quot;rounded&quot;:0};" vertex="1" parent="1">
          <mxGeometry x="2155" y="3842" width="10" height="87" as="geometry" />
        </mxCell>
        <mxCell id="SgX2f3MI7TWej8Hia5gL-13" value="" style="html=1;points=[];perimeter=orthogonalPerimeter;outlineConnect=0;targetShapes=umlLifeline;portConstraint=eastwest;newEdgeStyle={&quot;edgeStyle&quot;:&quot;elbowEdgeStyle&quot;,&quot;elbow&quot;:&quot;vertical&quot;,&quot;curved&quot;:0,&quot;rounded&quot;:0};movable=1;resizable=1;rotatable=1;deletable=1;editable=1;locked=0;connectable=1;" vertex="1" parent="1">
          <mxGeometry x="2939" y="4014" width="10" height="40" as="geometry" />
        </mxCell>
        <mxCell id="SgX2f3MI7TWej8Hia5gL-14" value="Перейти к списку часто задаваемых вопросов" style="html=1;verticalAlign=bottom;endArrow=block;curved=0;rounded=0;" edge="1" parent="1">
          <mxGeometry x="-0.0018" y="2" width="80" relative="1" as="geometry">
            <mxPoint x="-140" y="3989" as="sourcePoint" />
            <mxPoint x="2685" y="3989" as="targetPoint" />
            <mxPoint as="offset" />
          </mxGeometry>
        </mxCell>
        <mxCell id="SgX2f3MI7TWej8Hia5gL-15" value="Обновленный список часто задаваемых вопросов" style="html=1;verticalAlign=bottom;endArrow=open;dashed=1;endSize=8;curved=0;rounded=0;" edge="1" parent="1">
          <mxGeometry x="0.0015" relative="1" as="geometry">
            <mxPoint x="2685" y="4076.5000000000005" as="sourcePoint" />
            <mxPoint x="-140" y="4076.5000000000005" as="targetPoint" />
            <mxPoint as="offset" />
          </mxGeometry>
        </mxCell>
        <mxCell id="SgX2f3MI7TWej8Hia5gL-16" value="Запрос обновленного списка&lt;br&gt;часто задаваемых вопросов" style="html=1;verticalAlign=bottom;endArrow=block;curved=0;rounded=0;" edge="1" parent="1" target="SgX2f3MI7TWej8Hia5gL-13">
          <mxGeometry width="80" relative="1" as="geometry">
            <mxPoint x="2695" y="4014" as="sourcePoint" />
            <mxPoint x="2905" y="4013.5" as="targetPoint" />
          </mxGeometry>
        </mxCell>
        <mxCell id="SgX2f3MI7TWej8Hia5gL-17" value="Обновленный список &lt;br&gt;часто задаваемых вопросов" style="html=1;verticalAlign=bottom;endArrow=open;dashed=1;endSize=8;curved=0;rounded=0;" edge="1" parent="1" source="SgX2f3MI7TWej8Hia5gL-13">
          <mxGeometry x="-0.0021" relative="1" as="geometry">
            <mxPoint x="2906" y="4053.5" as="sourcePoint" />
            <mxPoint x="2695" y="4054" as="targetPoint" />
            <mxPoint as="offset" />
          </mxGeometry>
        </mxCell>
        <mxCell id="SgX2f3MI7TWej8Hia5gL-18" value="" style="html=1;points=[];perimeter=orthogonalPerimeter;outlineConnect=0;targetShapes=umlLifeline;portConstraint=eastwest;newEdgeStyle={&quot;edgeStyle&quot;:&quot;elbowEdgeStyle&quot;,&quot;elbow&quot;:&quot;vertical&quot;,&quot;curved&quot;:0,&quot;rounded&quot;:0};movable=1;resizable=1;rotatable=1;deletable=1;editable=1;locked=0;connectable=1;" vertex="1" parent="1">
          <mxGeometry x="2685" y="3989" width="10" height="87" as="geometry" />
        </mxCell>
        <mxCell id="SgX2f3MI7TWej8Hia5gL-33" value="Найти доступный сервис в поле поиска" style="html=1;verticalAlign=bottom;endArrow=block;curved=0;rounded=0;" edge="1" parent="1" target="SgX2f3MI7TWej8Hia5gL-38">
          <mxGeometry x="-0.0011" width="80" relative="1" as="geometry">
            <mxPoint x="-140" y="854" as="sourcePoint" />
            <mxPoint x="1440" y="854" as="targetPoint" />
            <mxPoint as="offset" />
          </mxGeometry>
        </mxCell>
        <mxCell id="SgX2f3MI7TWej8Hia5gL-34" value="Список доступных сервисов, удовлетворяющих условиям поиска" style="html=1;verticalAlign=bottom;endArrow=open;dashed=1;endSize=8;curved=0;rounded=0;" edge="1" parent="1" source="SgX2f3MI7TWej8Hia5gL-38">
          <mxGeometry x="-0.0002" relative="1" as="geometry">
            <mxPoint x="1440" y="964.5" as="sourcePoint" />
            <mxPoint x="-140" y="964" as="targetPoint" />
            <mxPoint as="offset" />
          </mxGeometry>
        </mxCell>
        <mxCell id="SgX2f3MI7TWej8Hia5gL-35" value="Запрос обновленного списка&lt;br&gt;сервисов в категории" style="html=1;verticalAlign=bottom;endArrow=block;curved=0;rounded=0;" edge="1" parent="1">
          <mxGeometry x="-0.0016" width="80" relative="1" as="geometry">
            <mxPoint x="970" y="874" as="sourcePoint" />
            <mxPoint x="1185" y="874" as="targetPoint" />
            <mxPoint as="offset" />
          </mxGeometry>
        </mxCell>
        <mxCell id="SgX2f3MI7TWej8Hia5gL-36" value="Обновленный список подписок&amp;nbsp;&lt;br&gt;пользователя" style="html=1;verticalAlign=bottom;endArrow=open;dashed=1;endSize=8;curved=0;rounded=0;" edge="1" parent="1">
          <mxGeometry x="-0.0041" relative="1" as="geometry">
            <mxPoint x="1185" y="934" as="sourcePoint" />
            <mxPoint x="970" y="934" as="targetPoint" />
            <mxPoint as="offset" />
          </mxGeometry>
        </mxCell>
        <mxCell id="SgX2f3MI7TWej8Hia5gL-37" value="" style="html=1;points=[];perimeter=orthogonalPerimeter;outlineConnect=0;targetShapes=umlLifeline;portConstraint=eastwest;newEdgeStyle={&quot;edgeStyle&quot;:&quot;elbowEdgeStyle&quot;,&quot;elbow&quot;:&quot;vertical&quot;,&quot;curved&quot;:0,&quot;rounded&quot;:0};" vertex="1" parent="1">
          <mxGeometry x="1185" y="874" width="10" height="60" as="geometry" />
        </mxCell>
        <mxCell id="SgX2f3MI7TWej8Hia5gL-38" value="" style="html=1;points=[];perimeter=orthogonalPerimeter;outlineConnect=0;targetShapes=umlLifeline;portConstraint=eastwest;newEdgeStyle={&quot;edgeStyle&quot;:&quot;elbowEdgeStyle&quot;,&quot;elbow&quot;:&quot;vertical&quot;,&quot;curved&quot;:0,&quot;rounded&quot;:0};" vertex="1" parent="1">
          <mxGeometry x="960" y="854" width="10" height="110" as="geometry" />
        </mxCell>
        <mxCell id="JDW7fGdjqn5SQFJFb9Jk-1" value="Найти подходящий вопрос в поле поиска" style="html=1;verticalAlign=bottom;endArrow=block;curved=0;rounded=0;" edge="1" parent="1" target="JDW7fGdjqn5SQFJFb9Jk-6">
          <mxGeometry x="-0.0009" width="80" relative="1" as="geometry">
            <mxPoint x="-140" y="4127" as="sourcePoint" />
            <mxPoint x="1440" y="4127" as="targetPoint" />
            <mxPoint as="offset" />
          </mxGeometry>
        </mxCell>
        <mxCell id="JDW7fGdjqn5SQFJFb9Jk-2" value="Список подходящих вопросов" style="html=1;verticalAlign=bottom;endArrow=open;dashed=1;endSize=8;curved=0;rounded=0;" edge="1" parent="1">
          <mxGeometry x="-0.0002" relative="1" as="geometry">
            <mxPoint x="2685" y="4233.5" as="sourcePoint" />
            <mxPoint x="-140" y="4233.5" as="targetPoint" />
            <mxPoint as="offset" />
          </mxGeometry>
        </mxCell>
        <mxCell id="JDW7fGdjqn5SQFJFb9Jk-3" value="Поиск подходящего вопроса" style="html=1;verticalAlign=bottom;endArrow=block;curved=0;rounded=0;" edge="1" parent="1">
          <mxGeometry x="-0.0016" width="80" relative="1" as="geometry">
            <mxPoint x="2695" y="4147" as="sourcePoint" />
            <mxPoint x="2939" y="4147" as="targetPoint" />
            <mxPoint as="offset" />
          </mxGeometry>
        </mxCell>
        <mxCell id="JDW7fGdjqn5SQFJFb9Jk-4" value="Список подходящих вопросов" style="html=1;verticalAlign=bottom;endArrow=open;dashed=1;endSize=8;curved=0;rounded=0;" edge="1" parent="1">
          <mxGeometry x="-0.0021" relative="1" as="geometry">
            <mxPoint x="2939" y="4207" as="sourcePoint" />
            <mxPoint x="2695" y="4207" as="targetPoint" />
            <mxPoint as="offset" />
          </mxGeometry>
        </mxCell>
        <mxCell id="JDW7fGdjqn5SQFJFb9Jk-5" value="" style="html=1;points=[];perimeter=orthogonalPerimeter;outlineConnect=0;targetShapes=umlLifeline;portConstraint=eastwest;newEdgeStyle={&quot;edgeStyle&quot;:&quot;elbowEdgeStyle&quot;,&quot;elbow&quot;:&quot;vertical&quot;,&quot;curved&quot;:0,&quot;rounded&quot;:0};" vertex="1" parent="1">
          <mxGeometry x="2939" y="4147" width="10" height="60" as="geometry" />
        </mxCell>
        <mxCell id="JDW7fGdjqn5SQFJFb9Jk-6" value="" style="html=1;points=[];perimeter=orthogonalPerimeter;outlineConnect=0;targetShapes=umlLifeline;portConstraint=eastwest;newEdgeStyle={&quot;edgeStyle&quot;:&quot;elbowEdgeStyle&quot;,&quot;elbow&quot;:&quot;vertical&quot;,&quot;curved&quot;:0,&quot;rounded&quot;:0};" vertex="1" parent="1">
          <mxGeometry x="2685" y="4127" width="10" height="107" as="geometry" />
        </mxCell>
        <mxCell id="JDW7fGdjqn5SQFJFb9Jk-7" value="" style="html=1;points=[];perimeter=orthogonalPerimeter;outlineConnect=0;targetShapes=umlLifeline;portConstraint=eastwest;newEdgeStyle={&quot;edgeStyle&quot;:&quot;elbowEdgeStyle&quot;,&quot;elbow&quot;:&quot;vertical&quot;,&quot;curved&quot;:0,&quot;rounded&quot;:0};" vertex="1" parent="1">
          <mxGeometry x="1185" y="1772" width="10" height="40" as="geometry" />
        </mxCell>
        <mxCell id="JDW7fGdjqn5SQFJFb9Jk-9" value="Экспортировать чек об&amp;nbsp;оплате подписки" style="html=1;verticalAlign=bottom;endArrow=block;curved=0;rounded=0;" edge="1" parent="1">
          <mxGeometry width="80" relative="1" as="geometry">
            <mxPoint x="-139.9999999999999" y="1747" as="sourcePoint" />
            <mxPoint x="960" y="1747" as="targetPoint" />
          </mxGeometry>
        </mxCell>
        <mxCell id="JDW7fGdjqn5SQFJFb9Jk-10" value="Обработать параметры&amp;nbsp;&lt;br&gt;экспорта и экспортировать&lt;br&gt;чек&amp;nbsp;" style="html=1;align=left;spacingLeft=2;endArrow=block;rounded=0;edgeStyle=orthogonalEdgeStyle;curved=0;rounded=0;" edge="1" parent="1">
          <mxGeometry relative="1" as="geometry">
            <mxPoint x="1195" y="1782" as="sourcePoint" />
            <Array as="points">
              <mxPoint x="1225" y="1782" />
              <mxPoint x="1225" y="1812" />
            </Array>
            <mxPoint x="1195" y="1812" as="targetPoint" />
          </mxGeometry>
        </mxCell>
        <mxCell id="JDW7fGdjqn5SQFJFb9Jk-11" value="Экспортировать чек об&amp;nbsp;оплате подписки" style="html=1;verticalAlign=bottom;endArrow=block;curved=0;rounded=0;" edge="1" parent="1">
          <mxGeometry width="80" relative="1" as="geometry">
            <mxPoint x="970" y="1772" as="sourcePoint" />
            <mxPoint x="1185" y="1772" as="targetPoint" />
          </mxGeometry>
        </mxCell>
        <mxCell id="JDW7fGdjqn5SQFJFb9Jk-12" value="" style="group" connectable="0" vertex="1" parent="1">
          <mxGeometry x="-320" y="1717" width="1690" height="134" as="geometry" />
        </mxCell>
        <mxCell id="JDW7fGdjqn5SQFJFb9Jk-13" value="opt" style="shape=umlFrame;whiteSpace=wrap;html=1;pointerEvents=0;" vertex="1" parent="JDW7fGdjqn5SQFJFb9Jk-12">
          <mxGeometry width="1689.9999999999998" height="120.6" as="geometry" />
        </mxCell>
        <mxCell id="JDW7fGdjqn5SQFJFb9Jk-14" value="&lt;span style=&quot;&quot;&gt;[оплата подписки успешна]&lt;/span&gt;" style="text;whiteSpace=wrap;html=1;align=center;" vertex="1" parent="JDW7fGdjqn5SQFJFb9Jk-12">
          <mxGeometry y="54.2" width="170" height="33.34" as="geometry" />
        </mxCell>
        <mxCell id="JDW7fGdjqn5SQFJFb9Jk-8" value="" style="html=1;points=[];perimeter=orthogonalPerimeter;outlineConnect=0;targetShapes=umlLifeline;portConstraint=eastwest;newEdgeStyle={&quot;edgeStyle&quot;:&quot;elbowEdgeStyle&quot;,&quot;elbow&quot;:&quot;vertical&quot;,&quot;curved&quot;:0,&quot;rounded&quot;:0};" vertex="1" parent="JDW7fGdjqn5SQFJFb9Jk-12">
          <mxGeometry x="1280" y="30.23170731707317" width="10" height="24.51219512195122" as="geometry" />
        </mxCell>
        <mxCell id="rFldnTflBnJy9byAghej-86" value="Условия сервиса" style="html=1;verticalAlign=bottom;endArrow=open;dashed=1;endSize=8;curved=0;rounded=0;" edge="1" parent="1">
          <mxGeometry relative="1" as="geometry">
            <mxPoint x="961" y="1588" as="sourcePoint" />
            <mxPoint x="-140" y="1588" as="targetPoint" />
            <mxPoint as="offset" />
          </mxGeometry>
        </mxCell>
        <mxCell id="JDW7fGdjqn5SQFJFb9Jk-15" value="" style="group" connectable="0" vertex="1" parent="1">
          <mxGeometry x="-320" y="1838" width="1690" height="142" as="geometry" />
        </mxCell>
        <mxCell id="JDW7fGdjqn5SQFJFb9Jk-16" value="opt" style="shape=umlFrame;whiteSpace=wrap;html=1;pointerEvents=0;" vertex="1" parent="JDW7fGdjqn5SQFJFb9Jk-15">
          <mxGeometry width="1690" height="142" as="geometry" />
        </mxCell>
        <mxCell id="JDW7fGdjqn5SQFJFb9Jk-17" value="&lt;span style=&quot;text-align: center;&quot;&gt;[пользователь вошел&lt;/span&gt;&lt;br style=&quot;text-align: center;&quot;&gt;&lt;span style=&quot;text-align: center;&quot;&gt;&amp;nbsp;на экран&lt;br&gt;&amp;nbsp;оформления&lt;/span&gt;&lt;span style=&quot;text-align: center;&quot;&gt;]&lt;/span&gt;" style="text;whiteSpace=wrap;html=1;" vertex="1" parent="JDW7fGdjqn5SQFJFb9Jk-15">
          <mxGeometry x="40" y="39.539111111111104" width="130" height="32.78622222222222" as="geometry" />
        </mxCell>
        <mxCell id="JDW7fGdjqn5SQFJFb9Jk-19" value="" style="html=1;points=[];perimeter=orthogonalPerimeter;outlineConnect=0;targetShapes=umlLifeline;portConstraint=eastwest;newEdgeStyle={&quot;edgeStyle&quot;:&quot;elbowEdgeStyle&quot;,&quot;elbow&quot;:&quot;vertical&quot;,&quot;curved&quot;:0,&quot;rounded&quot;:0};" vertex="1" parent="JDW7fGdjqn5SQFJFb9Jk-15">
          <mxGeometry x="1505" y="51.82" width="10" height="38.18" as="geometry" />
        </mxCell>
        <mxCell id="JDW7fGdjqn5SQFJFb9Jk-20" value="Сменить способ оплаты по умолчанию" style="html=1;verticalAlign=bottom;endArrow=block;curved=0;rounded=0;" edge="1" parent="JDW7fGdjqn5SQFJFb9Jk-15">
          <mxGeometry width="80" relative="1" as="geometry">
            <mxPoint x="180.0000000000001" y="29.37822222222205" as="sourcePoint" />
            <mxPoint x="1280" y="29.37822222222169" as="targetPoint" />
          </mxGeometry>
        </mxCell>
        <mxCell id="JDW7fGdjqn5SQFJFb9Jk-21" value="Смена способа оплаты&lt;br&gt;по умолчанию" style="html=1;verticalAlign=bottom;endArrow=block;curved=0;rounded=0;" edge="1" parent="JDW7fGdjqn5SQFJFb9Jk-15" target="JDW7fGdjqn5SQFJFb9Jk-19">
          <mxGeometry x="0.0047" width="80" relative="1" as="geometry">
            <mxPoint x="1290" y="51.82266666666649" as="sourcePoint" />
            <mxPoint x="1505" y="51.82266666666649" as="targetPoint" />
            <mxPoint as="offset" />
          </mxGeometry>
        </mxCell>
        <mxCell id="JDW7fGdjqn5SQFJFb9Jk-22" value="" style="html=1;points=[];perimeter=orthogonalPerimeter;outlineConnect=0;targetShapes=umlLifeline;portConstraint=eastwest;newEdgeStyle={&quot;edgeStyle&quot;:&quot;elbowEdgeStyle&quot;,&quot;elbow&quot;:&quot;vertical&quot;,&quot;curved&quot;:0,&quot;rounded&quot;:0};" vertex="1" parent="JDW7fGdjqn5SQFJFb9Jk-15">
          <mxGeometry x="1280" y="29.74" width="10" height="90.26" as="geometry" />
        </mxCell>
        <mxCell id="JDW7fGdjqn5SQFJFb9Jk-24" value="Обновленный список приоритизации способов оплаты" style="html=1;verticalAlign=bottom;endArrow=open;dashed=1;endSize=8;curved=0;rounded=0;" edge="1" parent="JDW7fGdjqn5SQFJFb9Jk-15">
          <mxGeometry relative="1" as="geometry">
            <mxPoint x="1279.9999999999998" y="120.00000000000023" as="sourcePoint" />
            <mxPoint x="180" y="120" as="targetPoint" />
            <mxPoint as="offset" />
          </mxGeometry>
        </mxCell>
        <mxCell id="JDW7fGdjqn5SQFJFb9Jk-25" value="" style="html=1;verticalAlign=bottom;endArrow=open;dashed=1;endSize=8;curved=0;rounded=0;" edge="1" parent="JDW7fGdjqn5SQFJFb9Jk-15">
          <mxGeometry relative="1" as="geometry">
            <mxPoint x="1505" y="89.90999999999985" as="sourcePoint" />
            <mxPoint x="1290.0000000000002" y="89.90999999999985" as="targetPoint" />
            <mxPoint as="offset" />
          </mxGeometry>
        </mxCell>
        <mxCell id="cLqWGaLSRkpbiKMD2nUf-1" value="Перейти на главный экран с доступными подписками" style="html=1;verticalAlign=bottom;endArrow=block;curved=0;rounded=0;" edge="1" parent="1" target="cLqWGaLSRkpbiKMD2nUf-6">
          <mxGeometry x="-0.0009" width="80" relative="1" as="geometry">
            <mxPoint x="-140" y="3544" as="sourcePoint" />
            <mxPoint x="1895" y="3544" as="targetPoint" />
            <mxPoint as="offset" />
          </mxGeometry>
        </mxCell>
        <mxCell id="cLqWGaLSRkpbiKMD2nUf-2" value="Обновленный главный экран" style="html=1;verticalAlign=bottom;endArrow=open;dashed=1;endSize=8;curved=0;rounded=0;" edge="1" parent="1" source="cLqWGaLSRkpbiKMD2nUf-6">
          <mxGeometry x="-0.0002" relative="1" as="geometry">
            <mxPoint x="1900" y="3654" as="sourcePoint" />
            <mxPoint x="-140" y="3654" as="targetPoint" />
            <mxPoint as="offset" />
          </mxGeometry>
        </mxCell>
        <mxCell id="cLqWGaLSRkpbiKMD2nUf-3" value="Запрос последней информации о&amp;nbsp;&lt;br&gt;главном экране" style="html=1;verticalAlign=bottom;endArrow=block;curved=0;rounded=0;" edge="1" parent="1" target="cLqWGaLSRkpbiKMD2nUf-5">
          <mxGeometry x="-0.0016" width="80" relative="1" as="geometry">
            <mxPoint x="2165" y="3564" as="sourcePoint" />
            <mxPoint x="2410" y="3564" as="targetPoint" />
            <mxPoint as="offset" />
          </mxGeometry>
        </mxCell>
        <mxCell id="cLqWGaLSRkpbiKMD2nUf-4" value="Обновленный главный экран" style="html=1;verticalAlign=bottom;endArrow=open;dashed=1;endSize=8;curved=0;rounded=0;" edge="1" parent="1" source="cLqWGaLSRkpbiKMD2nUf-5">
          <mxGeometry relative="1" as="geometry">
            <mxPoint x="2410" y="3624" as="sourcePoint" />
            <mxPoint x="2165" y="3624" as="targetPoint" />
            <mxPoint as="offset" />
          </mxGeometry>
        </mxCell>
        <mxCell id="cLqWGaLSRkpbiKMD2nUf-6" value="" style="html=1;points=[];perimeter=orthogonalPerimeter;outlineConnect=0;targetShapes=umlLifeline;portConstraint=eastwest;newEdgeStyle={&quot;edgeStyle&quot;:&quot;elbowEdgeStyle&quot;,&quot;elbow&quot;:&quot;vertical&quot;,&quot;curved&quot;:0,&quot;rounded&quot;:0};" vertex="1" parent="1">
          <mxGeometry x="2155" y="3544" width="10" height="110" as="geometry" />
        </mxCell>
        <mxCell id="cLqWGaLSRkpbiKMD2nUf-14" value="Перейти на главный экран с доступными подписками" style="html=1;verticalAlign=bottom;endArrow=block;curved=0;rounded=0;" edge="1" parent="1" target="cLqWGaLSRkpbiKMD2nUf-18">
          <mxGeometry x="-0.0009" width="80" relative="1" as="geometry">
            <mxPoint x="-140" y="3340" as="sourcePoint" />
            <mxPoint x="1895" y="3340" as="targetPoint" />
            <mxPoint as="offset" />
          </mxGeometry>
        </mxCell>
        <mxCell id="cLqWGaLSRkpbiKMD2nUf-15" value="Обновленный главный экран" style="html=1;verticalAlign=bottom;endArrow=open;dashed=1;endSize=8;curved=0;rounded=0;" edge="1" parent="1">
          <mxGeometry x="-0.0002" relative="1" as="geometry">
            <mxPoint x="1900" y="3450" as="sourcePoint" />
            <mxPoint x="-140" y="3450" as="targetPoint" />
            <mxPoint as="offset" />
          </mxGeometry>
        </mxCell>
        <mxCell id="cLqWGaLSRkpbiKMD2nUf-16" value="Запрос последней информации о&amp;nbsp;&lt;br&gt;главном экране" style="html=1;verticalAlign=bottom;endArrow=block;curved=0;rounded=0;" edge="1" parent="1" target="cLqWGaLSRkpbiKMD2nUf-13">
          <mxGeometry x="-0.0016" width="80" relative="1" as="geometry">
            <mxPoint x="1910" y="3360" as="sourcePoint" />
            <mxPoint x="2155" y="3360" as="targetPoint" />
            <mxPoint as="offset" />
          </mxGeometry>
        </mxCell>
        <mxCell id="cLqWGaLSRkpbiKMD2nUf-17" value="Обновленный главный экран" style="html=1;verticalAlign=bottom;endArrow=open;dashed=1;endSize=8;curved=0;rounded=0;" edge="1" parent="1" source="cLqWGaLSRkpbiKMD2nUf-13">
          <mxGeometry relative="1" as="geometry">
            <mxPoint x="2155" y="3420" as="sourcePoint" />
            <mxPoint x="1910" y="3420" as="targetPoint" />
            <mxPoint as="offset" />
          </mxGeometry>
        </mxCell>
        <mxCell id="cLqWGaLSRkpbiKMD2nUf-18" value="" style="html=1;points=[];perimeter=orthogonalPerimeter;outlineConnect=0;targetShapes=umlLifeline;portConstraint=eastwest;newEdgeStyle={&quot;edgeStyle&quot;:&quot;elbowEdgeStyle&quot;,&quot;elbow&quot;:&quot;vertical&quot;,&quot;curved&quot;:0,&quot;rounded&quot;:0};" vertex="1" parent="1">
          <mxGeometry x="1900" y="3340" width="10" height="110" as="geometry" />
        </mxCell>
      </root>
    </mxGraphModel>
  </diagram>
</mxfile>
